999
dxflib 3.26.4.0
  0
SECTION
  2
HEADER
  9
$ACADVER
  1
AC1015
  9
$HANDSEED
  5
FFFF
  9
$DIMADEC
 70
0
  9
$DIMASZ
 40
2.5
  9
$DIMATFIT
 70
0
  9
$DIMAUNIT
 70
0
  9
$DIMAZIN
 70
2
  9
$DIMBLK
  1
0
  9
$DIMBLK1
  1
0
  9
$DIMBLK2
  1
0
  9
$DIMDEC
 70
4
  9
$DIMDLI
 40
5.0
  9
$DIMDSEP
 70
46
  9
$DIMEXE
 40
1.25
  9
$DIMEXO
 40
0.625
  9
$DIMGAP
 40
0.625
  9
$DIMLFAC
 40
1.0
  9
$DIMLUNIT
 70
2
  9
$DIMSCALE
 40
1.0
  9
$DIMTAD
 70
1
  9
$DIMTIH
 70
0
  9
$DIMTSZ
 40
0.0
  9
$DIMTXT
 40
2.5
  9
$DIMZIN
 70
8
  9
$DWGCODEPAGE
  3
ANSI_1252
  9
$INSUNITS
 70
4
  9
$LTSCALE
 40
1.0
  9
$MAXACTVP
 70
64
  9
$MEASUREMENT
 70
1
  9
$MIRRTEXT
 70
0
  9
$PDMODE
 70
0
  9
$PDSIZE
 40
0.0
  0
ENDSEC
  0
SECTION
  2
TABLES
  0
TABLE
  2
VPORT
  5
8
100
AcDbSymbolTable
 70
1
  0
VPORT
  5
30
100
AcDbSymbolTableRecord
100
AcDbViewportTableRecord
  2
*Active
 70
0
 10
0.0
 20
0.0
 11
1.0
 21
1.0
 12
286.3055555555554861
 22
148.5
 13
0.0
 23
0.0
 14
10.0
 24
10.0
 15
10.0
 25
10.0
 16
0.0
 26
0.0
 36
1.0
 17
0.0
 27
0.0
 37
0.0
 40
297.0
 41
1.92798353909465
 42
50.0
 43
0.0
 44
0.0
 50
0.0
 51
0.0
 71
0
 72
100
 73
1
 74
3
 75
1
 76
1
 77
0
 78
0
281
0
 65
1
110
0.0
120
0.0
130
0.0
111
1.0
121
0.0
131
0.0
112
0.0
122
1.0
132
0.0
 79
0
146
0.0
  0
ENDTAB
  0
TABLE
  2
LTYPE
  5
5
100
AcDbSymbolTable
 70
41
  0
LTYPE
  5
16
100
AcDbSymbolTableRecord
100
AcDbLinetypeTableRecord
  2
Continuous
 70
0
  3
Solid line
 72
65
 73
0
 40
0.0
  0
LTYPE
  5
31
100
AcDbSymbolTableRecord
100
AcDbLinetypeTableRecord
  2
ACAD_ISO10W100
 70
0
  3
ISO dash dot __ . __ . __ . __ . __ . __ . __ . 
 72
65
 73
4
 40
18.0
 49
12.0
 74
0
 49
-2.9500000000000002
 74
0
 49
0.1
 74
0
 49
-2.9500000000000002
 74
0
  0
LTYPE
  5
32
100
AcDbSymbolTableRecord
100
AcDbLinetypeTableRecord
  2
ACAD_ISO04W100
 70
0
  3
ISO long-dash dot ____ . ____ . ____ . ____ . _
 72
65
 73
4
 40
30.0
 49
24.0
 74
0
 49
-2.9500000000000002
 74
0
 49
0.1
 74
0
 49
-2.9500000000000002
 74
0
  0
LTYPE
  5
33
100
AcDbSymbolTableRecord
100
AcDbLinetypeTableRecord
  2
DASHED2
 70
0
  3
Dashed (.5x) _ _ _ _ _ _ _ _ _ _ _ _ _ _ _ _ _ 
 72
65
 73
2
 40
9.5249999999999986
 49
6.3499999999999996
 74
0
 49
-3.1749999999999998
 74
0
  0
LTYPE
  5
34
100
AcDbSymbolTableRecord
100
AcDbLinetypeTableRecord
  2
ACAD_ISO07W100
 70
0
  3
ISO dot . . . . . . . . . . . . . . . . . . . . 
 72
65
 73
2
 40
3.0
 49
0.1
 74
0
 49
-2.8999999999999999
 74
0
  0
LTYPE
  5
14
100
AcDbSymbolTableRecord
100
AcDbLinetypeTableRecord
  2
BYBLOCK
 70
0
  3

 72
65
 73
0
 40
0.0
  0
LTYPE
  5
35
100
AcDbSymbolTableRecord
100
AcDbLinetypeTableRecord
  2
ACAD_ISO02W100
 70
0
  3
ISO dash __ __ __ __ __ __ __ __ __ __ __ __ __
 72
65
 73
2
 40
15.0
 49
12.0
 74
0
 49
-3.0
 74
0
  0
LTYPE
  5
36
100
AcDbSymbolTableRecord
100
AcDbLinetypeTableRecord
  2
PHANTOMX2
 70
0
  3
Phantom (2x) ____________    ____    ____   _
 72
65
 73
6
 40
127.0000000000000142
 49
63.5
 74
0
 49
-12.6999999999999993
 74
0
 49
12.6999999999999993
 74
0
 49
-12.6999999999999993
 74
0
 49
12.6999999999999993
 74
0
 49
-12.6999999999999993
 74
0
  0
LTYPE
  5
37
100
AcDbSymbolTableRecord
100
AcDbLinetypeTableRecord
  2
ACAD_ISO11W100
 70
0
  3
ISO double-dash dot __ __ . __ __ . __ __ . __ _
 72
65
 73
6
 40
33.0
 49
12.0
 74
0
 49
-3.0
 74
0
 49
12.0
 74
0
 49
-2.9500000000000002
 74
0
 49
0.1
 74
0
 49
-2.9500000000000002
 74
0
  0
LTYPE
  5
38
100
AcDbSymbolTableRecord
100
AcDbLinetypeTableRecord
  2
PHANTOM
 70
0
  3
Phantom ______  __  __  ______  __  __  ______ 
 72
65
 73
6
 40
63.5000000000000071
 49
31.75
 74
0
 49
-6.3499999999999996
 74
0
 49
6.3499999999999996
 74
0
 49
-6.3499999999999996
 74
0
 49
6.3499999999999996
 74
0
 49
-6.3499999999999996
 74
0
  0
LTYPE
  5
39
100
AcDbSymbolTableRecord
100
AcDbLinetypeTableRecord
  2
ACAD_ISO06W100
 70
0
  3
ISO long-dash triple-dot ____ ... ____ ... ____
 72
65
 73
8
 40
36.0000000000000071
 49
24.0
 74
0
 49
-2.9500000000000002
 74
0
 49
0.1
 74
0
 49
-2.9000000000000004
 74
0
 49
0.1
 74
0
 49
-2.9000000000000004
 74
0
 49
0.1
 74
0
 49
-2.9500000000000002
 74
0
  0
LTYPE
  5
3A
100
AcDbSymbolTableRecord
100
AcDbLinetypeTableRecord
  2
BORDER
 70
0
  3
Border __ __ . __ __ . __ __ . __ __ . __ __ .
 72
65
 73
6
 40
44.4499999999999957
 49
12.6999999999999993
 74
0
 49
-6.3499999999999996
 74
0
 49
12.6999999999999993
 74
0
 49
-6.2999999999999998
 74
0
 49
0.1
 74
0
 49
-6.2999999999999998
 74
0
  0
LTYPE
  5
3B
100
AcDbSymbolTableRecord
100
AcDbLinetypeTableRecord
  2
DIVIDE2
 70
0
  3
Divide (.5x) __..__..__..__..__..__..__..__.._
 72
65
 73
6
 40
15.8749999999999982
 49
6.3499999999999996
 74
0
 49
-3.125
 74
0
 49
0.1
 74
0
 49
-3.0750000000000002
 74
0
 49
0.1
 74
0
 49
-3.125
 74
0
  0
LTYPE
  5
3C
100
AcDbSymbolTableRecord
100
AcDbLinetypeTableRecord
  2
ACAD_ISO15W100
 70
0
  3
ISO double-dash triple-dot __ __ . . . __ __ . .
 72
65
 73
10
 40
39.0000000000000071
 49
12.0
 74
0
 49
-3.0
 74
0
 49
12.0
 74
0
 49
-2.9500000000000002
 74
0
 49
0.1
 74
0
 49
-2.9000000000000004
 74
0
 49
0.1
 74
0
 49
-2.9000000000000004
 74
0
 49
0.1
 74
0
 49
-2.9500000000000002
 74
0
  0
LTYPE
  5
3D
100
AcDbSymbolTableRecord
100
AcDbLinetypeTableRecord
  2
DIVIDE
 70
0
  3
Divide ____ . . ____ . . ____ . . ____ . . ____
 72
65
 73
6
 40
31.7500000000000036
 49
12.6999999999999993
 74
0
 49
-6.2999999999999998
 74
0
 49
0.1
 74
0
 49
-6.25
 74
0
 49
0.1
 74
0
 49
-6.2999999999999998
 74
0
  0
LTYPE
  5
3E
100
AcDbSymbolTableRecord
100
AcDbLinetypeTableRecord
  2
ACAD_ISO13W100
 70
0
  3
ISO double-dash double-dot __ __ . . __ __ . . _
 72
65
 73
8
 40
36.0000000000000071
 49
12.0
 74
0
 49
-3.0
 74
0
 49
12.0
 74
0
 49
-2.9500000000000002
 74
0
 49
0.1
 74
0
 49
-2.9000000000000004
 74
0
 49
0.1
 74
0
 49
-2.9500000000000002
 74
0
  0
LTYPE
  5
3F
100
AcDbSymbolTableRecord
100
AcDbLinetypeTableRecord
  2
BORDERX2
 70
0
  3
Border (2x) ____  ____  .  ____  ____  .  ___
 72
65
 73
6
 40
88.8999999999999773
 49
25.3999999999999986
 74
0
 49
-12.6999999999999993
 74
0
 49
25.3999999999999986
 74
0
 49
-12.6499999999999986
 74
0
 49
0.1
 74
0
 49
-12.6499999999999986
 74
0
  0
LTYPE
  5
40
100
AcDbSymbolTableRecord
100
AcDbLinetypeTableRecord
  2
DOT2
 70
0
  3
Dot (.5x) ........................................
 72
65
 73
2
 40
3.1749999999999998
 49
0.1
 74
0
 49
-3.0749999999999997
 74
0
  0
LTYPE
  5
41
100
AcDbSymbolTableRecord
100
AcDbLinetypeTableRecord
  2
DASHDOT
 70
0
  3
Dash dot __ . __ . __ . __ . __ . __ . __ . __
 72
65
 73
4
 40
25.4000000000000021
 49
12.6999999999999993
 74
0
 49
-6.2999999999999998
 74
0
 49
0.1
 74
0
 49
-6.2999999999999998
 74
0
  0
LTYPE
  5
42
100
AcDbSymbolTableRecord
100
AcDbLinetypeTableRecord
  2
ACAD_ISO03W100
 70
0
  3
ISO dash space __    __    __    __    __    __
 72
65
 73
2
 40
30.0
 49
12.0
 74
0
 49
-18.0
 74
0
  0
LTYPE
  5
43
100
AcDbSymbolTableRecord
100
AcDbLinetypeTableRecord
  2
ACAD_ISO12W100
 70
0
  3
ISO dash double-dot __ . . __ . . __ . . __ . . 
 72
65
 73
6
 40
21.0
 49
12.0
 74
0
 49
-2.9500000000000002
 74
0
 49
0.1
 74
0
 49
-2.9000000000000004
 74
0
 49
0.1
 74
0
 49
-2.9500000000000002
 74
0
  0
LTYPE
  5
44
100
AcDbSymbolTableRecord
100
AcDbLinetypeTableRecord
  2
DIVIDEX2
 70
0
  3
Divide (2x) ________  .  .  ________  .  .  _
 72
65
 73
6
 40
63.5
 49
25.3999999999999986
 74
0
 49
-12.6499999999999986
 74
0
 49
0.1
 74
0
 49
-12.5999999999999979
 74
0
 49
0.1
 74
0
 49
-12.6499999999999986
 74
0
  0
LTYPE
  5
45
100
AcDbSymbolTableRecord
100
AcDbLinetypeTableRecord
  2
ACAD_ISO09W100
 70
0
  3
ISO long-dash double-short-dash ____ __ __ ____
 72
65
 73
6
 40
45.0
 49
24.0
 74
0
 49
-3.0
 74
0
 49
6.0
 74
0
 49
-3.0
 74
0
 49
6.0
 74
0
 49
-3.0
 74
0
  0
LTYPE
  5
46
100
AcDbSymbolTableRecord
100
AcDbLinetypeTableRecord
  2
ACAD_ISO05W100
 70
0
  3
ISO long-dash double-dot ____ .. ____ .. ____ . 
 72
65
 73
6
 40
33.0000000000000071
 49
24.0
 74
0
 49
-2.9500000000000002
 74
0
 49
0.1
 74
0
 49
-2.9000000000000004
 74
0
 49
0.1
 74
0
 49
-2.9500000000000002
 74
0
  0
LTYPE
  5
47
100
AcDbSymbolTableRecord
100
AcDbLinetypeTableRecord
  2
CENTER2
 70
0
  3
Center (.5x) ___ _ ___ _ ___ _ ___ _ ___ _ ___
 72
65
 73
4
 40
28.5750000000000028
 49
19.0500000000000007
 74
0
 49
-3.1749999999999998
 74
0
 49
3.1749999999999998
 74
0
 49
-3.1749999999999998
 74
0
  0
LTYPE
  5
48
100
AcDbSymbolTableRecord
100
AcDbLinetypeTableRecord
  2
CENTERX2
 70
0
  3
Center (2x) ________  __  ________  __  _____
 72
65
 73
4
 40
101.6000000000000085
 49
63.5
 74
0
 49
-12.6999999999999993
 74
0
 49
12.6999999999999993
 74
0
 49
-12.6999999999999993
 74
0
  0
LTYPE
  5
49
100
AcDbSymbolTableRecord
100
AcDbLinetypeTableRecord
  2
DASHED
 70
0
  3
Dashed __ __ __ __ __ __ __ __ __ __ __ __ __ _
 72
65
 73
2
 40
19.0499999999999972
 49
12.6999999999999993
 74
0
 49
-6.3499999999999996
 74
0
  0
LTYPE
  5
4A
100
AcDbSymbolTableRecord
100
AcDbLinetypeTableRecord
  2
DOT
 70
0
  3
Dot . . . . . . . . . . . . . . . . . . . . . . . .
 72
65
 73
2
 40
6.3499999999999996
 49
0.1
 74
0
 49
-6.25
 74
0
  0
LTYPE
  5
4B
100
AcDbSymbolTableRecord
100
AcDbLinetypeTableRecord
  2
DASHDOT2
 70
0
  3
Dash dot (.5x) _._._._._._._._._._._._._._._.
 72
65
 73
4
 40
12.6999999999999993
 49
6.3499999999999996
 74
0
 49
-3.125
 74
0
 49
0.1
 74
0
 49
-3.125
 74
0
  0
LTYPE
  5
4C
100
AcDbSymbolTableRecord
100
AcDbLinetypeTableRecord
  2
DASHEDX2
 70
0
  3
Dashed (2x) ____  ____  ____  ____  ____  ___
 72
65
 73
2
 40
38.0999999999999943
 49
25.3999999999999986
 74
0
 49
-12.6999999999999993
 74
0
  0
LTYPE
  5
4D
100
AcDbSymbolTableRecord
100
AcDbLinetypeTableRecord
  2
PHANTOM2
 70
0
  3
Phantom (.5x) ___ _ _ ___ _ _ ___ _ _ ___ _ _
 72
65
 73
6
 40
31.7500000000000036
 49
15.875
 74
0
 49
-3.1749999999999998
 74
0
 49
3.1749999999999998
 74
0
 49
-3.1749999999999998
 74
0
 49
3.1749999999999998
 74
0
 49
-3.1749999999999998
 74
0
  0
LTYPE
  5
4E
100
AcDbSymbolTableRecord
100
AcDbLinetypeTableRecord
  2
ACAD_ISO08W100
 70
0
  3
ISO long-dash short-dash ____ __ ____ __ ____ _
 72
65
 73
4
 40
36.0
 49
24.0
 74
0
 49
-3.0
 74
0
 49
6.0
 74
0
 49
-3.0
 74
0
  0
LTYPE
  5
4F
100
AcDbSymbolTableRecord
100
AcDbLinetypeTableRecord
  2
HIDDENX2
 70
0
  3
Hidden (2x) ____ ____ ____ ____ ____ ____ ____ 
 72
65
 73
2
 40
19.0499999999999972
 49
12.6999999999999993
 74
0
 49
-6.3499999999999996
 74
0
  0
LTYPE
  5
50
100
AcDbSymbolTableRecord
100
AcDbLinetypeTableRecord
  2
HIDDEN2
 70
0
  3
Hidden (.5x) _ _ _ _ _ _ _ _ _ _ _ _ _ _ _ _ _ 
 72
65
 73
2
 40
4.7624999999999993
 49
3.1749999999999998
 74
0
 49
-1.5874999999999999
 74
0
  0
LTYPE
  5
51
100
AcDbSymbolTableRecord
100
AcDbLinetypeTableRecord
  2
CENTER
 70
0
  3
Center ____ _ ____ _ ____ _ ____ _ ____ _ ____
 72
65
 73
4
 40
50.8000000000000043
 49
31.75
 74
0
 49
-6.3499999999999996
 74
0
 49
6.3499999999999996
 74
0
 49
-6.3499999999999996
 74
0
  0
LTYPE
  5
52
100
AcDbSymbolTableRecord
100
AcDbLinetypeTableRecord
  2
HIDDEN
 70
0
  3
Hidden __ __ __ __ __ __ __ __ __ __ __ __ __ __
 72
65
 73
2
 40
9.5249999999999986
 49
6.3499999999999996
 74
0
 49
-3.1749999999999998
 74
0
  0
LTYPE
  5
53
100
AcDbSymbolTableRecord
100
AcDbLinetypeTableRecord
  2
DOTX2
 70
0
  3
Dot (2x) .  .  .  .  .  .  .  .  .  .  .  .  .  .
 72
65
 73
2
 40
12.6999999999999993
 49
0.1
 74
0
 49
-12.5999999999999996
 74
0
  0
LTYPE
  5
54
100
AcDbSymbolTableRecord
100
AcDbLinetypeTableRecord
  2
BORDER2
 70
0
  3
Border (.5x) __.__.__.__.__.__.__.__.__.__.__.
 72
65
 73
6
 40
22.2250000000000014
 49
6.3499999999999996
 74
0
 49
-3.1749999999999998
 74
0
 49
6.3499999999999996
 74
0
 49
-3.125
 74
0
 49
0.1
 74
0
 49
-3.125
 74
0
  0
LTYPE
  5
55
100
AcDbSymbolTableRecord
100
AcDbLinetypeTableRecord
  2
DASHDOTX2
 70
0
  3
Dash dot (2x) ____  .  ____  .  ____  .  ___
 72
65
 73
4
 40
50.7999999999999972
 49
25.3999999999999986
 74
0
 49
-12.6499999999999986
 74
0
 49
0.1
 74
0
 49
-12.6499999999999986
 74
0
  0
LTYPE
  5
15
100
AcDbSymbolTableRecord
100
AcDbLinetypeTableRecord
  2
BYLAYER
 70
0
  3

 72
65
 73
0
 40
0.0
  0
LTYPE
  5
56
100
AcDbSymbolTableRecord
100
AcDbLinetypeTableRecord
  2
ACAD_ISO14W100
 70
0
  3
ISO dash triple-dot __ . . . __ . . . __ . . . _
 72
65
 73
8
 40
24.0000000000000036
 49
12.0
 74
0
 49
-2.9500000000000002
 74
0
 49
0.1
 74
0
 49
-2.9000000000000004
 74
0
 49
0.1
 74
0
 49
-2.9000000000000004
 74
0
 49
0.1
 74
0
 49
-2.9500000000000002
 74
0
  0
ENDTAB
  0
TABLE
  2
LAYER
  5
2
100
AcDbSymbolTable
 70
1
  0
LAYER
  5
10
100
AcDbSymbolTableRecord
100
AcDbLayerTableRecord
  2
0
 70
0
 62
7
420
16777215
  6
Continuous
370
25
390
F
  0
ENDTAB
  0
TABLE
  2
STYLE
  5
3
100
AcDbSymbolTable
 70
1
  0
STYLE
  5
57
100
AcDbSymbolTableRecord
100
AcDbTextStyleTableRecord
  2
Standard
 70
0
 40
0.0
 41
1.0
 50
0.0
 71
0
 42
2.5
  3

  4

1001
ACAD
1000
txt
1071
0
  0
ENDTAB
  0
TABLE
  2
VIEW
  5
6
100
AcDbSymbolTable
 70
0
  0
ENDTAB
  0
TABLE
  2
UCS
  5
7
100
AcDbSymbolTable
 70
0
  0
ENDTAB
  0
TABLE
  2
APPID
  5
9
100
AcDbSymbolTable
 70
1
  0
APPID
  5
12
100
AcDbSymbolTableRecord
100
AcDbRegAppTableRecord
  2
ACAD
 70
0
  0
APPID
  5
58
100
AcDbSymbolTableRecord
100
AcDbRegAppTableRecord
  2
QCAD
 70
0
  0
ENDTAB
  0
TABLE
  2
DIMSTYLE
  5
A
100
AcDbSymbolTable
 70
1
100
AcDbDimStyleTable
 71
0
  0
DIMSTYLE
105
27
100
AcDbSymbolTableRecord
100
AcDbDimStyleTableRecord
  2
Standard
 41
2.5
 42
0.625
 43
3.75
 44
1.25
 70
0
 73
0
 74
0
 77
1
 78
8
140
2.5
141
2.5
143
0.03937007874016
147
0.625
171
3
172
1
271
2
272
2
274
3
278
44
283
0
284
8
340
57
  0
ENDTAB
  0
TABLE
  2
BLOCK_RECORD
  5
1
100
AcDbSymbolTable
 70
1
  0
BLOCK_RECORD
  5
1F
100
AcDbSymbolTableRecord
100
AcDbBlockTableRecord
  2
*Model_Space
340
22
  0
BLOCK_RECORD
  5
1B
100
AcDbSymbolTableRecord
100
AcDbBlockTableRecord
  2
*Paper_Space
340
1E
  0
BLOCK_RECORD
  5
23
100
AcDbSymbolTableRecord
100
AcDbBlockTableRecord
  2
*Paper_Space0
340
26
  0
ENDTAB
  0
ENDSEC
  0
SECTION
  2
BLOCKS
  0
BLOCK
  5
20
100
AcDbEntity
  8
0
100
AcDbBlockBegin
  2
*Model_Space
 70
0
 10
0.0
 20
0.0
 30
0.0
  3
*Model_Space
  1

  0
ENDBLK
  5
21
100
AcDbEntity
  8
0
100
AcDbBlockEnd
  0
BLOCK
  5
1C
100
AcDbEntity
 67
1
  8
0
100
AcDbBlockBegin
  2
*Paper_Space
 70
0
 10
0.0
 20
0.0
 30
0.0
  3
*Paper_Space
  1

  0
ENDBLK
  5
1D
100
AcDbEntity
 67
1
  8
0
100
AcDbBlockEnd
  0
BLOCK
  5
24
100
AcDbEntity
  8
0
100
AcDbBlockBegin
  2
*Paper_Space0
 70
0
 10
0.0
 20
0.0
 30
0.0
  3
*Paper_Space0
  1

  0
ENDBLK
  5
25
100
AcDbEntity
  8
0
100
AcDbBlockEnd
  0
ENDSEC
  0
SECTION
  2
ENTITIES
  0
LINE
  5
59
100
AcDbEntity
  8
0
 62
256
370
-1
 48
1.0
  6
BYLAYER
100
AcDbLine
 10
-55.3339502330298529
 20
-74.4890256059708236
 30
0.0
 11
-55.3339502330298529
 21
-74.4890140559669476
 31
0.0
  0
LINE
  5
5A
100
AcDbEntity
  8
0
 62
256
370
-1
 48
1.0
  6
BYLAYER
100
AcDbLine
 10
-55.3339502330298529
 20
-64.4890256059708094
 30
0.0
 11
-55.3339502330298529
 21
-49.5123632519180603
 31
0.0
  0
LINE
  5
5B
100
AcDbEntity
  8
0
 62
256
370
-1
 48
1.0
  6
BYLAYER
100
AcDbLine
 10
75.3364330025517717
 20
-49.5170053476181664
 30
0.0
 11
76.112548419838518
 21
-49.4111547888338549
 31
0.0
  0
LINE
  5
5C
100
AcDbEntity
  8
0
 62
256
370
-1
 48
1.0
  6
BYLAYER
100
AcDbLine
 10
76.112548419838518
 20
-49.4111547888338549
 30
0.0
 11
76.8886638371249234
 21
-49.1289368730512592
 31
0.0
  0
LINE
  5
5D
100
AcDbEntity
  8
0
 62
256
370
-1
 48
1.0
  6
BYLAYER
100
AcDbLine
 10
76.8886638371249234
 20
-49.1289368730512592
 30
0.0
 11
77.6647792544113855
 21
-48.7055992334546772
 31
0.0
  0
LINE
  5
5E
100
AcDbEntity
  8
0
 62
256
370
-1
 48
1.0
  6
BYLAYER
100
AcDbLine
 10
77.6647792544113855
 20
-48.7055992334546772
 30
0.0
 11
78.4408946716975066
 21
-48.0706035399824287
 31
0.0
  0
LINE
  5
5F
100
AcDbEntity
  8
0
 62
256
370
-1
 48
1.0
  6
BYLAYER
100
AcDbLine
 10
78.4408946716975066
 20
-48.0706035399824287
 30
0.0
 11
79.1817193921072118
 21
-47.2592189576657518
 31
0.0
  0
LINE
  5
60
100
AcDbEntity
  8
0
 62
256
370
-1
 48
1.0
  6
BYLAYER
100
AcDbLine
 10
79.1817193921072118
 20
-47.2592189576657518
 30
0.0
 11
79.9225441125163485
 21
-46.2714454865043194
 31
0.0
  0
LINE
  5
61
100
AcDbEntity
  8
0
 62
256
370
-1
 48
1.0
  6
BYLAYER
100
AcDbLine
 10
79.9225441125163485
 20
-46.2714454865043194
 30
0.0
 11
80.663390364772809
 21
-45.1425522915283608
 31
0.0
  0
LINE
  5
62
100
AcDbEntity
  8
0
 62
256
370
-1
 48
1.0
  6
BYLAYER
100
AcDbLine
 10
80.663390364772809
 20
-45.1425522915283608
 30
0.0
 11
81.3689459201520009
 21
-43.8372702077074763
 31
0.0
  0
LINE
  5
63
100
AcDbEntity
  8
0
 62
256
370
-1
 48
1.0
  6
BYLAYER
100
AcDbLine
 10
81.3689459201520009
 20
-43.8372702077074763
 30
0.0
 11
82.0392107786538105
 21
-42.3555992350421775
 31
0.0
  0
LINE
  5
64
100
AcDbEntity
  8
0
 62
256
370
-1
 48
1.0
  6
BYLAYER
100
AcDbLine
 10
82.0392107786538105
 20
-42.3555992350421775
 30
0.0
 11
82.7094971690030576
 21
-40.7328300704084967
 31
0.0
  0
LINE
  5
65
100
AcDbEntity
  8
0
 62
256
370
-1
 48
1.0
  6
BYLAYER
100
AcDbLine
 10
82.7094971690030576
 20
-40.7328300704084967
 30
0.0
 11
83.3444928624749792
 21
-38.968941181960588
 31
0.0
  0
LINE
  5
66
100
AcDbEntity
  8
0
 62
256
370
-1
 48
1.0
  6
BYLAYER
100
AcDbLine
 10
83.3444928624749792
 20
-38.968941181960588
 30
0.0
 11
83.944219390916615
 21
-37.0639325696985225
 31
0.0
  0
LINE
  5
67
100
AcDbEntity
  8
0
 62
256
370
-1
 48
1.0
  6
BYLAYER
100
AcDbLine
 10
83.944219390916615
 20
-37.0639325696985225
 30
0.0
 11
84.5086552224809253
 21
-35.0178257654679044
 31
0.0
  0
LINE
  5
68
100
AcDbEntity
  8
0
 62
256
370
-1
 48
1.0
  6
BYLAYER
100
AcDbLine
 10
84.5086552224809253
 20
-35.0178257654679044
 30
0.0
 11
85.0731125858926731
 21
-32.8305992374234847
 31
0.0
  0
LINE
  5
69
100
AcDbEntity
  8
0
 62
256
370
-1
 48
1.0
  6
BYLAYER
100
AcDbLine
 10
85.0731125858926731
 20
-32.8305992374234847
 30
0.0
 11
85.5669885555496563
 21
-30.5375436824411963
 31
0.0
  0
LINE
  5
6A
100
AcDbEntity
  8
0
 62
256
370
-1
 48
1.0
  6
BYLAYER
100
AcDbLine
 10
85.5669885555496563
 20
-30.5375436824411963
 30
0.0
 11
86.0256168920235638
 21
-28.1386591005211102
 31
0.0
  0
LINE
  5
6B
100
AcDbEntity
  8
0
 62
256
370
-1
 48
1.0
  6
BYLAYER
100
AcDbLine
 10
86.0256168920235638
 20
-28.1386591005211102
 30
0.0
 11
86.4489329997736746
 21
-25.5986547947869525
 31
0.0
  0
LINE
  5
6C
100
AcDbEntity
  8
0
 62
256
370
-1
 48
1.0
  6
BYLAYER
100
AcDbLine
 10
86.4489329997736746
 20
-25.5986547947869525
 30
0.0
 11
86.837001474340596
 21
-23.0233813240220684
 31
0.0
  0
LINE
  5
6D
100
AcDbEntity
  8
0
 62
256
370
-1
 48
1.0
  6
BYLAYER
100
AcDbLine
 10
86.837001474340596
 20
-23.0233813240220684
 30
0.0
 11
87.1897792520301351
 21
-20.3069881294432406
 31
0.0
  0
LINE
  5
6E
100
AcDbEntity
  8
0
 62
256
370
-1
 48
1.0
  6
BYLAYER
100
AcDbLine
 10
87.1897792520301351
 20
-20.3069881294432406
 30
0.0
 11
87.4719971678124608
 21
-17.5553257698335301
 31
0.0
  0
LINE
  5
6F
100
AcDbEntity
  8
0
 62
256
370
-1
 48
1.0
  6
BYLAYER
100
AcDbLine
 10
87.4719971678124608
 20
-17.5553257698335301
 30
0.0
 11
87.7542150835947865
 21
-14.7331035483169188
 31
0.0
  0
LINE
  5
70
100
AcDbEntity
  8
0
 62
256
370
-1
 48
1.0
  6
BYLAYER
100
AcDbLine
 10
87.7542150835947865
 20
-14.7331035483169188
 30
0.0
 11
87.9658946693162562
 21
-11.8403214648933783
 31
0.0
  0
LINE
  5
71
100
AcDbEntity
  8
0
 62
256
370
-1
 48
1.0
  6
BYLAYER
100
AcDbLine
 10
87.9658946693162562
 20
-11.8403214648933783
 30
0.0
 11
88.1069928612843256
 21
-8.9122702164388699
 31
0.0
  0
LINE
  5
72
100
AcDbEntity
  8
0
 62
256
370
-1
 48
1.0
  6
BYLAYER
100
AcDbLine
 10
88.1069928612843256
 20
-8.9122702164388699
 30
0.0
 11
88.248112585098923
 21
-5.984218967984404
 31
0.0
  0
LINE
  5
73
100
AcDbEntity
  8
0
 62
256
370
-1
 48
1.0
  6
BYLAYER
100
AcDbLine
 10
88.248112585098923
 20
-5.984218967984404
 30
0.0
 11
88.3186724470058522
 21
-2.9856078576229379
 31
0.0
  0
LINE
  5
74
100
AcDbEntity
  8
0
 62
256
370
-1
 48
1.0
  6
BYLAYER
100
AcDbLine
 10
88.3186724470058522
 20
-2.9856078576229379
 30
0.0
 11
88.3186724470058522
 21
0.013003252712295
 31
0.0
  0
LINE
  5
75
100
AcDbEntity
  8
0
 62
256
370
-1
 48
1.0
  6
BYLAYER
100
AcDbLine
 10
88.3186724470058522
 20
0.013003252712295
 30
0.0
 11
88.3186724470058522
 21
2.9763451980695521
 31
0.0
  0
LINE
  5
76
100
AcDbEntity
  8
0
 62
256
370
-1
 48
1.0
  6
BYLAYER
100
AcDbLine
 10
88.3186724470058522
 20
2.9763451980695521
 30
0.0
 11
88.248112585098923
 21
5.9749563084308335
 31
0.0
  0
LINE
  5
77
100
AcDbEntity
  8
0
 62
256
370
-1
 48
1.0
  6
BYLAYER
100
AcDbLine
 10
88.248112585098923
 20
5.9749563084308335
 30
0.0
 11
88.1069928612843256
 21
8.9030075568851288
 31
0.0
  0
LINE
  5
78
100
AcDbEntity
  8
0
 62
256
370
-1
 48
1.0
  6
BYLAYER
100
AcDbLine
 10
88.1069928612843256
 20
8.9030075568851288
 30
0.0
 11
87.9658946693162562
 21
11.8310588053392536
 31
0.0
  0
LINE
  5
79
100
AcDbEntity
  8
0
 62
256
370
-1
 48
1.0
  6
BYLAYER
100
AcDbLine
 10
87.9658946693162562
 20
11.8310588053392536
 30
0.0
 11
87.7542150835947865
 21
14.723840888763263
 31
0.0
  0
LINE
  5
7A
100
AcDbEntity
  8
0
 62
256
370
-1
 48
1.0
  6
BYLAYER
100
AcDbLine
 10
87.7542150835947865
 20
14.723840888763263
 30
0.0
 11
87.4719971678124608
 21
17.5460631102799738
 31
0.0
  0
LINE
  5
7B
100
AcDbEntity
  8
0
 62
256
370
-1
 48
1.0
  6
BYLAYER
100
AcDbLine
 10
87.4719971678124608
 20
17.5460631102799738
 30
0.0
 11
87.1897792520301351
 21
20.2977254698893859
 31
0.0
  0
LINE
  5
7C
100
AcDbEntity
  8
0
 62
256
370
-1
 48
1.0
  6
BYLAYER
100
AcDbLine
 10
87.1897792520301351
 20
20.2977254698893859
 30
0.0
 11
86.837001474340596
 21
23.0141186644685405
 31
0.0
  0
LINE
  5
7D
100
AcDbEntity
  8
0
 62
256
370
-1
 48
1.0
  6
BYLAYER
100
AcDbLine
 10
86.837001474340596
 20
23.0141186644685405
 30
0.0
 11
86.4489329997736746
 21
25.5893921352331688
 31
0.0
  0
LINE
  5
7E
100
AcDbEntity
  8
0
 62
256
370
-1
 48
1.0
  6
BYLAYER
100
AcDbLine
 10
86.4489329997736746
 20
25.5893921352331688
 30
0.0
 11
86.0256168920235638
 21
28.1293964409675255
 31
0.0
  0
LINE
  5
7F
100
AcDbEntity
  8
0
 62
256
370
-1
 48
1.0
  6
BYLAYER
100
AcDbLine
 10
86.0256168920235638
 20
28.1293964409675255
 30
0.0
 11
85.5669885555496563
 21
30.52828102288737
 31
0.0
  0
LINE
  5
80
100
AcDbEntity
  8
0
 62
256
370
-1
 48
1.0
  6
BYLAYER
100
AcDbLine
 10
85.5669885555496563
 20
30.52828102288737
 30
0.0
 11
85.0731125858926731
 21
32.8213365778696016
 31
0.0
  0
LWPOLYLINE
  5
81
100
AcDbEntity
  8
0
 62
256
370
-1
 48
1.0
  6
BYLAYER
100
AcDbPolyline
 90
5
 70
0
 10
166.451916948855569
 20
-34.0279144999756227
 10
157.4208144527409559
 20
-34.0279144999756227
 10
157.4208144527409559
 20
-29.5123632519180319
 10
166.451916948855569
 20
-29.5123632519180319
 10
166.451916948855569
 20
-34.0279144999756227
  0
LWPOLYLINE
  5
82
100
AcDbEntity
  8
0
 62
256
370
-1
 48
1.0
  6
BYLAYER
100
AcDbPolyline
 90
5
 70
0
 10
178.4830194449702105
 20
-34.0279144999756227
 10
169.451916948855569
 20
-34.0279144999756227
 10
169.451916948855569
 20
-29.5123632519180035
 10
178.4830194449702105
 20
-29.5123632519180319
 10
178.4830194449702105
 20
-34.0279144999756227
  0
LINE
  5
83
100
AcDbEntity
  8
0
 62
256
370
-1
 48
1.0
  6
BYLAYER
100
AcDbLine
 10
85.0731125858926731
 20
32.8213365778696016
 30
0.0
 11
84.5086552224809253
 21
35.0085631059143338
 31
0.0
  0
LWPOLYLINE
  5
84
100
AcDbEntity
  8
0
 62
256
370
-1
 48
1.0
  6
BYLAYER
100
AcDbPolyline
 90
5
 70
0
 10
190.5141219410848237
 20
-34.0279144999756227
 10
181.4830194449702105
 20
-34.0279144999756227
 10
181.4830194449702105
 20
-29.5123632519180035
 10
190.5141219410848237
 20
-29.5123632519180319
 10
190.5141219410848237
 20
-34.0279144999756227
  0
LWPOLYLINE
  5
85
100
AcDbEntity
  8
0
 62
256
370
-1
 48
1.0
  6
BYLAYER
100
AcDbPolyline
 90
5
 70
0
 10
166.4679592458883803
 20
34.0132781062827689
 10
157.4368577538346017
 20
34.0175366918593909
 10
157.4347284610462907
 20
29.5019859458321321
 10
166.4658299531001262
 20
29.4977273602556238
 10
166.4679592458883803
 20
34.0132781062827689
  0
LINE
  5
86
100
AcDbEntity
  8
0
 62
256
370
-1
 48
1.0
  6
BYLAYER
100
AcDbLine
 10
84.5086552224809253
 20
35.0085631059143338
 30
0.0
 11
83.944219390916615
 21
37.0546699101446393
 31
0.0
  0
LWPOLYLINE
  5
87
100
AcDbEntity
  8
0
 62
256
370
-1
 48
1.0
  6
BYLAYER
100
AcDbPolyline
 90
5
 70
0
 10
178.4990604044079134
 20
34.0076048809393114
 10
169.4679589123540495
 20
34.0118634665159334
 10
169.4658296195657954
 20
29.4963127204886746
 10
178.4969311116196025
 20
29.4920541349121663
 10
178.4990604044079134
 20
34.0076048809393114
  0
LWPOLYLINE
  5
88
100
AcDbEntity
  8
0
 62
256
370
-1
 48
1.0
  6
BYLAYER
100
AcDbPolyline
 90
5
 70
0
 10
190.5301615629274181
 20
34.0019316555959108
 10
181.4990600708736395
 20
34.0061902411724759
 10
181.4969307780853285
 20
29.4906394951452739
 10
190.5280322701391071
 20
29.4863809095687088
 10
190.5301615629274181
 20
34.0019316555959108
  0
LINE
  5
89
100
AcDbEntity
  8
0
 62
256
370
-1
 48
1.0
  6
BYLAYER
100
AcDbLine
 10
83.944219390916615
 20
37.0546699101446393
 30
0.0
 11
83.3444928624749792
 21
38.9596785224071027
 31
0.0
  0
LINE
  5
8A
100
AcDbEntity
  8
0
 62
256
370
-1
 48
1.0
  6
BYLAYER
100
AcDbLine
 10
83.3444928624749792
 20
38.9596785224071027
 30
0.0
 11
82.7094971690030576
 21
40.7235674108549688
 31
0.0
  0
LINE
  5
8B
100
AcDbEntity
  8
0
 62
256
370
-1
 48
1.0
  6
BYLAYER
100
AcDbLine
 10
82.7094971690030576
 20
40.7235674108549688
 30
0.0
 11
82.0392107786538105
 21
42.3463365754882943
 31
0.0
  0
LINE
  5
8C
100
AcDbEntity
  8
0
 62
256
370
-1
 48
1.0
  6
BYLAYER
100
AcDbLine
 10
82.0392107786538105
 20
42.3463365754882943
 30
0.0
 11
81.3689459201520009
 21
43.8280075481538915
 31
0.0
  0
LINE
  5
8D
100
AcDbEntity
  8
0
 62
256
370
-1
 48
1.0
  6
BYLAYER
100
AcDbLine
 10
81.3689459201520009
 20
43.8280075481538915
 30
0.0
 11
80.6633903647728658
 21
45.1332681001280207
 31
0.0
  0
LINE
  5
8E
100
AcDbEntity
  8
0
 62
256
370
-1
 48
1.0
  6
BYLAYER
100
AcDbLine
 10
80.6633903647728658
 20
45.1332681001280207
 30
0.0
 11
79.9225441125164053
 21
46.2974519919809495
 31
0.0
  0
LINE
  5
8F
100
AcDbEntity
  8
0
 62
256
370
-1
 48
1.0
  6
BYLAYER
100
AcDbLine
 10
79.9225441125164053
 20
46.2974519919809495
 30
0.0
 11
79.1817193921072118
 21
47.2499347662654259
 31
0.0
  0
LINE
  5
90
100
AcDbEntity
  8
0
 62
256
370
-1
 48
1.0
  6
BYLAYER
100
AcDbLine
 10
79.1817193921072118
 20
47.2499347662654259
 30
0.0
 11
78.4408946716975066
 21
48.0613408804289293
 31
0.0
  0
LINE
  5
91
100
AcDbEntity
  8
0
 62
256
370
-1
 48
1.0
  6
BYLAYER
100
AcDbLine
 10
78.4408946716975066
 20
48.0613408804289293
 30
0.0
 11
77.6647792544113855
 21
48.6963365739008509
 31
0.0
  0
LINE
  5
92
100
AcDbEntity
  8
0
 62
256
370
-1
 48
1.0
  6
BYLAYER
100
AcDbLine
 10
15.1971522630848384
 20
-37.0279144999756369
 30
0.0
 11
28.6971522630848241
 21
-37.0279144999756369
 31
0.0
  0
LINE
  5
93
100
AcDbEntity
  8
0
 62
256
370
-1
 48
1.0
  6
BYLAYER
100
AcDbLine
 10
77.6647792544113855
 20
48.6963365739008509
 30
0.0
 11
76.8886638371249802
 21
49.1196742134976603
 31
0.0
  0
LINE
  5
94
100
AcDbEntity
  8
0
 62
256
370
-1
 48
1.0
  6
BYLAYER
100
AcDbLine
 10
28.6971522630848241
 20
-37.0279144999756369
 30
0.0
 11
28.6971522630848241
 21
-45.5279144999756227
 31
0.0
  0
LINE
  5
95
100
AcDbEntity
  8
0
 62
256
370
-1
 48
1.0
  6
BYLAYER
100
AcDbLine
 10
76.8886638371249802
 20
49.1196742134976603
 30
0.0
 11
76.112548419838518
 21
49.4018921292800428
 31
0.0
  0
LINE
  5
96
100
AcDbEntity
  8
0
 62
256
370
-1
 48
1.0
  6
BYLAYER
100
AcDbLine
 10
76.112548419838518
 20
49.4018921292800428
 30
0.0
 11
75.3364330025517717
 21
49.5077211562175421
 31
0.0
  0
LINE
  5
97
100
AcDbEntity
  8
0
 62
256
370
-1
 48
1.0
  6
BYLAYER
100
AcDbLine
 10
-55.3339502330297961
 20
49.5123632519177264
 30
0.0
 11
-55.3339502330298316
 21
64.4890256059708094
 31
0.0
  0
LINE
  5
98
100
AcDbEntity
  8
0
 62
256
370
-1
 48
1.0
  6
BYLAYER
100
AcDbLine
 10
117.4208144527408848
 20
22.5993876399209626
 30
0.0
 11
117.4208144527408706
 21
29.5123632519177477
 31
0.0
  0
LINE
  5
99
100
AcDbEntity
  8
0
 62
256
370
-1
 48
1.0
  6
BYLAYER
100
AcDbLine
 10
117.4208144527409559
 20
-29.5123632519180603
 30
0.0
 11
117.4208144527409416
 21
-22.5993876399213036
 31
0.0
  0
CIRCLE
  5
9A
100
AcDbEntity
  8
0
 62
256
370
-1
 48
1.0
  6
BYLAYER
100
AcDbCircle
 10
188.7208144527409956
 20
-24.0661740489068734
 30
0.0
 40
1.5500000000000114
  0
CIRCLE
  5
9B
100
AcDbEntity
  8
0
 62
256
370
-1
 48
1.0
  6
BYLAYER
100
AcDbCircle
 10
190.020814452741007
 20
24.1338259510931152
 30
0.0
 40
1.5500000000000114
  0
CIRCLE
  5
9C
100
AcDbEntity
  8
0
 62
256
370
-1
 48
1.0
  6
BYLAYER
100
AcDbCircle
 10
137.9208144527409559
 20
-8.8661740489068848
 30
0.0
 40
1.5500000000000114
  0
CIRCLE
  5
9D
100
AcDbEntity
  8
0
 62
256
370
-1
 48
1.0
  6
BYLAYER
100
AcDbCircle
 10
137.9208144527409559
 20
19.0338259510930925
 30
0.0
 40
1.5500000000000114
  0
LINE
  5
9E
100
AcDbEntity
  8
0
 62
256
370
-1
 48
1.0
  6
BYLAYER
100
AcDbLine
 10
156.4208144527408422
 20
29.5123632519176908
 30
0.0
 11
117.4208144527408706
 21
29.5123632519177477
 31
0.0
  0
LINE
  5
9F
100
AcDbEntity
  8
0
 62
256
370
-1
 48
1.0
  6
BYLAYER
100
AcDbLine
 10
117.4208144527409559
 20
-29.5123632519180319
 30
0.0
 11
156.4208144527409559
 21
-29.5123632519180319
 31
0.0
  0
CIRCLE
  5
A0
100
AcDbEntity
  8
0
 62
256
370
-1
 48
1.0
  6
BYLAYER
100
AcDbCircle
 10
121.426785261541454
 20
24.9871323300813515
 30
0.0
 40
1.5500000000000114
  0
CIRCLE
  5
A1
100
AcDbEntity
  8
0
 62
256
370
-1
 48
1.0
  6
BYLAYER
100
AcDbCircle
 10
121.4258142638048525
 20
-24.9541743858204086
 30
0.0
 40
1.5500000000000114
  0
CIRCLE
  5
A2
100
AcDbEntity
  8
0
 62
256
370
-1
 48
1.0
  6
BYLAYER
100
AcDbCircle
 10
196.9227610323693227
 20
-31.7701388759468273
 30
0.0
 40
1.5500000000000114
  0
CIRCLE
  5
A3
100
AcDbEntity
  8
0
 62
256
370
-1
 48
1.0
  6
BYLAYER
100
AcDbCircle
 10
196.9227610323693511
 20
31.7701388759465431
 30
0.0
 40
1.5500000000000114
  0
CIRCLE
  5
A4
100
AcDbEntity
  8
0
 62
256
370
-1
 48
1.0
  6
BYLAYER
100
AcDbCircle
 10
42.6679963465986418
 20
-31.7701388759468841
 30
0.0
 40
1.5500000000000114
  0
CIRCLE
  5
A5
100
AcDbEntity
  8
0
 62
256
370
-1
 48
1.0
  6
BYLAYER
100
AcDbCircle
 10
42.667996346598656
 20
31.770138875946742
 30
0.0
 40
1.5500000000000114
  0
LINE
  5
A6
100
AcDbEntity
  8
0
 62
256
370
-1
 48
1.0
  6
BYLAYER
100
AcDbLine
 10
15.6802121095139313
 20
49.5123632519176624
 30
0.0
 11
-3.8339502330297961
 21
49.5123632519176908
 31
0.0
  0
LINE
  5
A7
100
AcDbEntity
  8
0
 62
256
370
-1
 48
1.0
  6
BYLAYER
100
AcDbLine
 10
-26.8339502330297961
 20
49.5123632519176908
 30
0.0
 11
-55.3339502330297961
 21
49.5123632519177193
 31
0.0
  0
LINE
  5
A8
100
AcDbEntity
  8
0
 62
256
370
-1
 48
1.0
  6
BYLAYER
100
AcDbLine
 10
-55.3339502330298529
 20
-49.5123632519180603
 30
0.0
 11
-26.8339502330298529
 21
-49.5123632519180603
 31
0.0
  0
LINE
  5
A9
100
AcDbEntity
  8
0
 62
256
370
-1
 48
1.0
  6
BYLAYER
100
AcDbLine
 10
-3.8339502330298529
 20
-49.5123632519180461
 30
0.0
 11
15.6802121095139313
 21
-49.5123632519180461
 31
0.0
  0
ARC
  5
AA
100
AcDbEntity
  8
0
 62
256
370
-1
 48
1.0
  6
BYLAYER
100
AcDbCircle
 10
298.3852170672661259
 20
-0.0000000000002842
 30
0.0
 40
99.2035918284315841
100
AcDbArc
 50
165.6703619444278672
 51
194.3296380555718486
  0
ARC
  5
AB
100
AcDbEntity
  8
0
 62
256
370
-1
 48
1.0
  6
BYLAYER
100
AcDbCircle
 10
109.277264025308412
 20
-0.0000000000001705
 30
0.0
 40
21.1435506298949534
100
AcDbArc
 50
300.181802574795654
 51
59.8181974252045308
  0
LINE
  5
AC
100
AcDbEntity
  8
0
 62
256
370
-1
 48
1.0
  6
BYLAYER
100
AcDbLine
 10
75.3023893932921027
 20
49.5123632519176624
 30
0.0
 11
15.6802121095139313
 21
49.5123632519176624
 31
0.0
  0
ARC
  5
AD
100
AcDbEntity
  8
0
 62
256
370
-1
 48
1.0
  6
BYLAYER
100
AcDbCircle
 10
122.4208144527408848
 20
22.5993876399209626
 30
0.0
 40
5.0
100
AcDbArc
 50
180.0
 51
239.8181974252044881
  0
ARC
  5
AE
100
AcDbEntity
  8
0
 62
256
370
-1
 48
1.0
  6
BYLAYER
100
AcDbCircle
 10
122.4208144527409416
 20
-22.5993876399213036
 30
0.0
 40
5.0
100
AcDbArc
 50
120.1818025747955829
 51
180.0
  0
LINE
  5
AF
100
AcDbEntity
  8
0
 62
256
370
-1
 48
1.0
  6
BYLAYER
100
AcDbLine
 10
15.6802121095139313
 20
-49.5123632519180461
 30
0.0
 11
75.37046968674845
 21
-49.5123632519180603
 31
0.0
  0
LWPOLYLINE
  5
B0
100
AcDbEntity
  8
0
 62
256
370
-1
 48
1.0
  6
BYLAYER
100
AcDbPolyline
 90
22
 70
0
 10
79.4639373078895375
 20
27.2121612998665796
 10
79.7814459205489044
 20
27.7413279664008883
 10
80.2047835601454295
 20
28.1646656059977545
 10
80.733950226679795
 20
28.4116143567498511
 10
81.3336552232746754
 20
28.4821742186570646
 10
81.9333817517166523
 20
28.4116143567497943
 10
82.4625484182510178
 20
28.1646656059977545
 10
82.885886057847884
 20
27.7413279664008883
 10
83.2033946705069098
 20
27.2121612998665228
 10
83.3092236974447502
 20
26.6477254683018714
 10
83.2739330005673679
 20
26.0479989398602356
 10
83.0622749466927104
 20
25.4835631082956411
 10
82.6742280039725443
 20
25.024956303668489
 10
82.1803305024686921
 20
24.7074476910092358
 10
81.6158946709038133
 20
24.5310588021642957
 10
81.0161681424624618
 20
24.5310588021642957
 10
80.451710779050714
 20
24.7074476910092358
 10
79.9578348093937308
 20
25.0249563036684606
 10
79.605057031704078
 20
25.4835631082955274
 10
79.393377445981983
 20
26.0479989398601788
 10
79.3228391159214681
 20
26.6477254683019282
 10
79.4639373078895375
 20
27.2121612998665796
  0
LWPOLYLINE
  5
B1
100
AcDbEntity
  8
0
 62
256
370
-1
 48
1.0
  6
BYLAYER
100
AcDbPolyline
 90
22
 70
0
 10
79.393377445981983
 20
-26.0572831312608741
 10
79.605057031704078
 20
-25.4928257678491548
 10
79.9578348093937308
 20
-25.0342189632220737
 10
80.451710779050714
 20
-24.7167103505630763
 10
81.0161681424624618
 20
-24.5403214617183352
 10
81.6158946709037565
 20
-24.5403214617182499
 10
82.1803305024686921
 20
-24.7167103505630337
 10
82.6742280039725443
 20
-25.0342189632221022
 10
83.0622749466927104
 20
-25.4928257678492116
 10
83.2739330005673679
 20
-26.0572831312609026
 10
83.3092236974447502
 20
-26.6569881278558256
 10
83.2033946705069098
 20
-27.2214454912668344
 10
82.885886057847884
 20
-27.7506121578011999
 10
82.4625484182510178
 20
-28.1386591005210533
 10
81.9333817517166523
 20
-28.4208770163036917
 10
81.3336552232746754
 20
-28.4914368782107204
 10
80.733950226679795
 20
-28.420877016303649
 10
80.2047835601454295
 20
-28.1386591005210533
 10
79.7814459205489044
 20
-27.7506121578012142
 10
79.4639373078895375
 20
-27.2214454912668913
 10
79.3228391159214681
 20
-26.6569881278557688
 10
79.393377445981983
 20
-26.0572831312608741
  0
LINE
  5
B2
100
AcDbEntity
  8
0
 62
256
370
-1
 48
1.0
  6
BYLAYER
100
AcDbLine
 10
156.4208144527408422
 20
29.5123632519176908
 30
0.0
 11
156.4208144527408137
 21
37.0279144999756227
 31
0.0
  0
LINE
  5
B3
100
AcDbEntity
  8
0
 62
256
370
-1
 48
1.0
  6
BYLAYER
100
AcDbLine
 10
156.4208144527409843
 20
-37.0279144999756227
 30
0.0
 11
156.4208144527409559
 21
-29.5123632519180319
 31
0.0
  0
LWPOLYLINE
  5
B4
100
AcDbEntity
  8
0
 62
256
370
-1
 48
1.0
  6
BYLAYER
100
AcDbPolyline
 90
5
 70
0
 10
-45.8183989849725464
 20
-27.0051238098451449
 10
-54.8495014810871595
 20
-27.0051238098451449
 10
-54.8495014810871595
 20
-22.4895725617875257
 10
-45.8183989849725464
 20
-22.4895725617875542
 10
-45.8183989849725464
 20
-27.0051238098451449
  0
LWPOLYLINE
  5
B5
100
AcDbEntity
  8
0
 62
256
370
-1
 48
1.0
  6
BYLAYER
100
AcDbPolyline
 90
5
 70
0
 10
-45.8183989849725464
 20
-19.0051238098451449
 10
-54.8495014810871595
 20
-19.0051238098451449
 10
-54.8495014810871595
 20
-14.4895725617875257
 10
-45.8183989849725464
 20
-14.4895725617875542
 10
-45.8183989849725464
 20
-19.0051238098451449
  0
LINE
  5
B6
100
AcDbEntity
  8
0
 62
256
370
-1
 48
1.0
  6
BYLAYER
100
AcDbLine
 10
192.5791855472591294
 20
-37.0279144999756227
 30
0.0
 11
156.4208144527409843
 21
-37.0279144999756227
 31
0.0
  0
LINE
  5
B7
100
AcDbEntity
  8
0
 62
256
370
-1
 48
1.0
  6
BYLAYER
100
AcDbLine
 10
192.5791855472591294
 20
37.0279144999756227
 30
0.0
 11
156.4208144527410127
 21
37.0279144999756227
 31
0.0
  0
ARC
  5
B8
100
AcDbEntity
  8
0
 62
256
370
-1
 48
1.0
  6
BYLAYER
100
AcDbCircle
 10
192.5791855472591294
 20
-27.0279144999756227
 30
0.0
 40
10.0
100
AcDbArc
 50
270.0
 51
14.3296380555718077
  0
ARC
  5
B9
100
AcDbEntity
  8
0
 62
256
370
-1
 48
1.0
  6
BYLAYER
100
AcDbCircle
 10
192.5791855472591294
 20
27.0279144999756227
 30
0.0
 40
10.0
100
AcDbArc
 50
345.6703619444281799
 51
89.9999999999999858
  0
LINE
  5
BA
100
AcDbEntity
  8
0
 62
256
370
-1
 48
1.0
  6
BYLAYER
100
AcDbLine
 10
15.1971522630848384
 20
-37.0279144999756369
 30
0.0
 11
15.1971522630848384
 21
-45.5279144999756511
 31
0.0
  0
LINE
  5
BB
100
AcDbEntity
  8
0
 62
256
370
-1
 48
1.0
  6
BYLAYER
100
AcDbLine
 10
15.1971522630848384
 20
-45.5279144999756369
 30
0.0
 11
28.6971522630848241
 21
-45.5279144999756227
 31
0.0
  0
LWPOLYLINE
  5
BC
100
AcDbEntity
  8
0
 62
256
370
-1
 48
1.0
  6
BYLAYER
100
AcDbPolyline
 90
5
 70
0
 10
12.2131945601177136
 20
31.0132781062827974
 10
3.1820930680639066
 20
31.0175366918593625
 10
3.179963775275624
 20
26.5019859458321605
 10
12.2110652673294311
 20
26.4977273602555954
 10
12.2131945601177136
 20
31.0132781062827974
  0
LWPOLYLINE
  5
BD
100
AcDbEntity
  8
0
 62
256
370
-1
 48
1.0
  6
BYLAYER
100
AcDbPolyline
 90
5
 70
0
 10
24.2442957186372468
 20
31.0076048809393399
 10
15.2131942265833828
 20
31.0118634665159334
 10
15.2110649337951287
 20
26.496312720488703
 10
24.2421664258489358
 20
26.4920541349121663
 10
24.2442957186372468
 20
31.0076048809393399
  0
LWPOLYLINE
  5
BE
100
AcDbEntity
  8
0
 62
256
370
-1
 48
1.0
  6
BYLAYER
100
AcDbPolyline
 90
5
 70
0
 10
36.275396877156723
 20
31.0019316555959108
 10
27.2442953851029444
 20
31.0061902411724475
 10
27.2421660923146334
 20
26.4906394951452739
 10
36.2732675843684405
 20
26.4863809095687088
 10
36.275396877156723
 20
31.0019316555959108
  0
LWPOLYLINE
  5
BF
100
AcDbEntity
  8
0
 62
256
370
-1
 48
1.0
  6
BYLAYER
100
AcDbPolyline
 90
5
 70
0
 10
12.2131945601177279
 20
-31.0132781062828116
 10
3.1820930680639066
 20
-31.0175366918594051
 10
3.179963775275624
 20
-26.5019859458321889
 10
12.2110652673294453
 20
-26.4977273602556238
 10
12.2131945601177279
 20
-31.0132781062828116
  0
LWPOLYLINE
  5
C0
100
AcDbEntity
  8
0
 62
256
370
-1
 48
1.0
  6
BYLAYER
100
AcDbPolyline
 90
5
 70
0
 10
36.275396877156723
 20
-31.0019316555959676
 10
27.2442953851029017
 20
-31.0061902411725896
 10
27.2421660923146334
 20
-26.4906394951453166
 10
36.2732675843684405
 20
-26.4863809095686804
 10
36.275396877156723
 20
-31.0019316555959676
  0
LWPOLYLINE
  5
C1
100
AcDbEntity
  8
0
 62
256
370
-1
 48
1.0
  6
BYLAYER
100
AcDbPolyline
 90
5
 70
0
 10
24.2442957186372752
 20
-31.0076048809393399
 10
15.2131942265833828
 20
-31.011863466515976
 10
15.2110649337951003
 20
-26.4963127204888025
 10
24.2421664258489074
 20
-26.4920541349122516
 10
24.2442957186372752
 20
-31.0076048809393399
  0
LWPOLYLINE
  5
C2
100
AcDbEntity
  8
0
 62
256
370
-1
 48
1.0
  6
BYLAYER
100
AcDbPolyline
 90
5
 70
0
 10
-45.8183989849725464
 20
27.0051453416916729
 10
-45.8183989849725464
 20
22.4895940936343948
 10
-54.8495014810871595
 20
22.4895940936343663
 10
-54.8495014810871595
 20
27.0051453416916729
 10
-45.8183989849725464
 20
27.0051453416916729
  0
LWPOLYLINE
  5
C3
100
AcDbEntity
  8
0
 62
256
370
-1
 48
1.0
  6
BYLAYER
100
AcDbPolyline
 90
5
 70
0
 10
-45.8183989849725464
 20
19.0051453416916729
 10
-45.8183989849725464
 20
14.4895940936343948
 10
-54.8495014810871595
 20
14.4895940936343663
 10
-54.8495014810871595
 20
19.0051453416916729
 10
-45.8183989849725464
 20
19.0051453416916729
  0
LINE
  5
C4
100
AcDbEntity
  8
0
 62
256
370
-1
 48
1.0
  6
BYLAYER
100
AcDbLine
 10
-3.8339502330298529
 20
-49.5123632519180461
 30
0.0
 11
-3.8339502330298529
 21
-34.5123632519180461
 31
0.0
  0
LINE
  5
C5
100
AcDbEntity
  8
0
 62
256
370
-1
 48
1.0
  6
BYLAYER
100
AcDbLine
 10
-26.8339502330298529
 20
-49.5123632519180603
 30
0.0
 11
-26.8339502330298529
 21
-34.5123632519180461
 31
0.0
  0
LINE
  5
C6
100
AcDbEntity
  8
0
 62
256
370
-1
 48
1.0
  6
BYLAYER
100
AcDbLine
 10
-3.8339502330297677
 20
34.5123632519176908
 30
0.0
 11
-3.8339502330297961
 21
49.5123632519176624
 31
0.0
  0
LINE
  5
C7
100
AcDbEntity
  8
0
 62
256
370
-1
 48
1.0
  6
BYLAYER
100
AcDbLine
 10
-26.8339502330297677
 20
34.5123632519176908
 30
0.0
 11
-26.8339502330297961
 21
49.5123632519176908
 31
0.0
  0
LINE
  5
C8
100
AcDbEntity
  8
0
 62
256
370
-1
 48
1.0
  6
BYLAYER
100
AcDbLine
 10
-3.8339502330297535
 20
34.5123632519176908
 30
0.0
 11
-26.8339502330297677
 21
34.5123632519176908
 31
0.0
  0
LINE
  5
C9
100
AcDbEntity
  8
0
 62
256
370
-1
 48
1.0
  6
BYLAYER
100
AcDbLine
 10
-26.8339502330298529
 20
-34.5123632519180603
 30
0.0
 11
-3.8339502330298529
 21
-34.5123632519180461
 31
0.0
  0
LINE
  5
CA
100
AcDbEntity
  8
0
 62
256
370
-1
 48
1.0
  6
BYLAYER
100
AcDbLine
 10
40.667996346598656
 20
-20.5000000000000284
 30
0.0
 11
40.6679963465986845
 21
20.4999999999999432
 31
0.0
  0
LINE
  5
CB
100
AcDbEntity
  8
0
 62
256
370
-1
 48
1.0
  6
BYLAYER
100
AcDbLine
 10
40.6679963465986845
 20
20.4999999999999432
 30
0.0
 11
-38.332003653401344
 21
20.4999999999999858
 31
0.0
  0
LINE
  5
CC
100
AcDbEntity
  8
0
 62
256
370
-1
 48
1.0
  6
BYLAYER
100
AcDbLine
 10
-38.332003653401344
 20
20.4999999999999858
 30
0.0
 11
-38.332003653401344
 21
-20.5000000000000284
 31
0.0
  0
LINE
  5
CD
100
AcDbEntity
  8
0
 62
256
370
-1
 48
1.0
  6
BYLAYER
100
AcDbLine
 10
-38.332003653401344
 20
-20.5000000000000284
 30
0.0
 11
40.667996346598656
 21
-20.5000000000000284
 31
0.0
  0
CIRCLE
  5
CE
100
AcDbEntity
  8
0
 62
256
370
-1
 48
1.0
  6
BYLAYER
100
AcDbCircle
 10
-29.3339502330297677
 20
42.0123632519176908
 30
0.0
 40
1.5499999999999972
  0
CIRCLE
  5
CF
100
AcDbEntity
  8
0
 62
256
370
-1
 48
1.0
  6
BYLAYER
100
AcDbCircle
 10
-29.3339502330297677
 20
-42.0123632519177477
 30
0.0
 40
1.5499999999999972
  0
CIRCLE
  5
D0
100
AcDbEntity
  8
0
 62
256
370
-1
 48
1.0
  6
BYLAYER
100
AcDbCircle
 10
-1.3339502330297677
 20
42.0123632519176624
 30
0.0
 40
1.5500000000000007
  0
CIRCLE
  5
D1
100
AcDbEntity
  8
0
 62
256
370
-1
 48
1.0
  6
BYLAYER
100
AcDbCircle
 10
-1.3339502330297961
 20
-42.012363251917705
 30
0.0
 40
1.5500000000000007
  0
CIRCLE
  5
D2
100
AcDbEntity
  8
0
 62
256
370
-1
 48
1.0
  6
BYLAYER
100
AcDbCircle
 10
-40.3320036534013298
 20
18.4999999999999716
 30
0.0
 40
1.5500000000000007
  0
CIRCLE
  5
D3
100
AcDbEntity
  8
0
 62
256
370
-1
 48
1.0
  6
BYLAYER
100
AcDbCircle
 10
-40.332003653401344
 20
-18.5000000000000284
 30
0.0
 40
1.5500000000000003
  0
CIRCLE
  5
D4
100
AcDbEntity
  8
0
 62
256
370
-1
 48
1.0
  6
BYLAYER
100
AcDbCircle
 10
42.6679963465986845
 20
18.4999999999999432
 30
0.0
 40
1.5500000000000007
  0
CIRCLE
  5
D5
100
AcDbEntity
  8
0
 62
256
370
-1
 48
1.0
  6
BYLAYER
100
AcDbCircle
 10
42.667996346598656
 20
-18.5000000000000284
 30
0.0
 40
1.5500000000000003
  0
CIRCLE
  5
D6
100
AcDbEntity
  8
0
 62
256
370
-1
 48
1.0
  6
BYLAYER
100
AcDbCircle
 10
-78.9339502330298757
 20
0.0171359106407039
 30
0.0
 40
0.25
  0
CIRCLE
  5
D7
100
AcDbEntity
  8
0
 62
256
370
-1
 48
1.0
  6
BYLAYER
100
AcDbCircle
 10
-51.7339502330298302
 20
0.016421084434711
 30
0.0
 40
0.25
  0
CIRCLE
  5
D8
100
AcDbEntity
  8
0
 62
256
370
-1
 48
1.0
  6
BYLAYER
100
AcDbCircle
 10
-32.8279794242292695
 20
24.9871323300813515
 30
0.0
 40
1.5500000000000114
  0
CIRCLE
  5
D9
100
AcDbEntity
  8
0
 62
256
370
-1
 48
1.0
  6
BYLAYER
100
AcDbCircle
 10
-32.828950421965871
 20
-24.954174385820437
 30
0.0
 40
1.5500000000000114
  0
LINE
  5
DA
100
AcDbEntity
  8
0
 62
256
370
-1
 48
1.0
  6
BYLAYER
100
AcDbLine
 10
-53.3339502330298245
 20
-6.4999972697296897
 30
0.0
 11
-53.3339502330298245
 21
6.5000027302703103
 31
0.0
  0
LINE
  5
DB
100
AcDbEntity
  8
0
 62
256
370
-1
 48
1.0
  6
BYLAYER
100
AcDbLine
 10
-77.3339502330298245
 20
-6.4999911802664343
 30
0.0
 11
-77.3339502330298245
 21
6.5000088197335657
 31
0.0
  0
LINE
  5
DC
100
AcDbEntity
  8
0
 62
256
370
-1
 48
1.0
  6
BYLAYER
100
AcDbLine
 10
-77.3339502330298245
 20
6.500005775001938
 30
0.0
 11
-53.3339502330298245
 21
6.500005775001938
 31
0.0
  0
LINE
  5
DD
100
AcDbEntity
  8
0
 62
256
370
-1
 48
1.0
  6
BYLAYER
100
AcDbLine
 10
-77.3339502330298529
 20
-6.499994224998062
 30
0.0
 11
-53.3339502330298387
 21
-6.499994224998062
 31
0.0
  0
CIRCLE
  5
DE
100
AcDbEntity
  8
0
 62
256
370
-1
 48
1.0
  6
BYLAYER
100
AcDbCircle
 10
58.2312942973466789
 20
15.0038302731184672
 30
0.0
 40
2.0499999999999972
  0
CIRCLE
  5
DF
100
AcDbEntity
  8
0
 62
256
370
-1
 48
1.0
  6
BYLAYER
100
AcDbCircle
 10
83.2312942973466789
 20
15.0038302731184672
 30
0.0
 40
2.0499999999999972
  0
CIRCLE
  5
E0
100
AcDbEntity
  8
0
 62
256
370
-1
 48
1.0
  6
BYLAYER
100
AcDbCircle
 10
83.2312942973466789
 20
-14.9961697268815328
 30
0.0
 40
2.0499999999999972
  0
CIRCLE
  5
E1
100
AcDbEntity
  8
0
 62
256
370
-1
 48
1.0
  6
BYLAYER
100
AcDbCircle
 10
58.2312942973466789
 20
-14.9961697268815328
 30
0.0
 40
2.0499999999999972
  0
LINE
  5
E2
100
AcDbEntity
  8
0
 62
256
370
-1
 48
1.0
  6
BYLAYER
100
AcDbLine
 10
-38.3320036534013582
 20
-48.5123632519180603
 30
0.0
 11
-38.3320036534013582
 21
-36.5123632519180603
 31
0.0
  0
CIRCLE
  5
E3
100
AcDbEntity
  8
0
 62
256
370
-1
 48
1.0
  6
BYLAYER
100
AcDbCircle
 10
-59.332003653401344
 20
-31.5750000000000171
 30
0.0
 40
1.5999999999999943
  0
CIRCLE
  5
E4
100
AcDbEntity
  8
0
 62
256
370
-1
 48
1.0
  6
BYLAYER
100
AcDbCircle
 10
-59.3319876562619157
 20
31.5749999999999815
 30
0.0
 40
1.6000000000000014
  0
CIRCLE
  5
E5
100
AcDbEntity
  8
0
 62
256
370
-1
 48
1.0
  6
BYLAYER
100
AcDbCircle
 10
-84.8261638351402922
 20
7.0026410403228638
 30
0.0
 40
1.6000000000000014
  0
CIRCLE
  5
E6
100
AcDbEntity
  8
0
 62
256
370
-1
 48
1.0
  6
BYLAYER
100
AcDbCircle
 10
-84.8261638351402922
 20
-6.984984925961264
 30
0.0
 40
1.6000000000000014
  0
CIRCLE
  5
E7
100
AcDbEntity
  8
0
 62
256
370
-1
 48
1.0
  6
BYLAYER
100
AcDbCircle
 10
-63.5879306406265314
 20
-57.0006944289444419
 30
0.0
 40
1.6000000000000014
  0
CIRCLE
  5
E8
100
AcDbEntity
  8
0
 62
256
370
-1
 48
1.0
  6
BYLAYER
100
AcDbCircle
 10
-63.5879306406265741
 20
57.0006944289444419
 30
0.0
 40
1.6000000000000014
  0
HATCH
  5
E9
100
AcDbEntity
  8
0
 62
256
370
-1
 48
1.0
  6
BYLAYER
100
AcDbHatch
 10
0.0
 20
0.0
 30
0.0
210
0.0
220
0.0
230
1.0
  2
SOLID
 70
1
 71
0
 91
1
 92
1
 93
4
 72
1
 10
-38.3320036534013582
 20
48.5123632519180177
 11
-38.3320036534013582
 21
36.5123632519180177
 72
1
 10
-38.3320036534013582
 20
36.5123632519180177
 11
-78.332003653401344
 21
36.5123632519180177
 72
1
 10
-78.332003653401344
 20
36.5123632519180177
 11
-78.3320036534013724
 21
48.5123632519179964
 72
1
 10
-78.3320036534013724
 20
48.5123632519179964
 11
-38.3320036534013582
 21
48.5123632519180177
 97
0
 75
0
 76
1
 98
0
1001
ACAD
1010
0.0
1020
0.0
1030
0
  0
HATCH
  5
EA
100
AcDbEntity
  8
0
 62
256
370
-1
 48
1.0
  6
BYLAYER
100
AcDbHatch
 10
0.0
 20
0.0
 30
0.0
210
0.0
220
0.0
230
1.0
  2
SOLID
 70
1
 71
0
 91
1
 92
1
 93
4
 72
1
 10
-38.3320036534013582
 20
-48.5123632519180603
 11
-38.3320036534013582
 21
-36.5123632519180603
 72
1
 10
-38.3320036534013582
 20
-36.5123632519180603
 11
-78.332003653401344
 21
-36.5123632519180603
 72
1
 10
-78.332003653401344
 20
-36.5123632519180603
 11
-78.332003653401344
 21
-48.5123632519180603
 72
1
 10
-78.332003653401344
 20
-48.5123632519180603
 11
-38.3320036534013582
 21
-48.5123632519180603
 97
0
 75
0
 76
1
 98
0
1001
ACAD
1010
0.0
1020
0.0
1030
0
  0
HATCH
  5
EB
100
AcDbEntity
  8
0
 62
256
370
-1
 48
1.0
  6
BYLAYER
100
AcDbHatch
 10
0.0
 20
0.0
 30
0.0
210
0.0
220
0.0
230
1.0
  2
SOLID
 70
1
 71
0
 91
2
 92
1
 93
4
 72
1
 10
35.3023893932921027
 20
48.5123632519176624
 11
75.3023893932921027
 21
48.5123632519176624
 72
1
 10
75.3023893932921027
 20
48.5123632519176624
 11
75.3023893932921027
 21
36.5123632519176624
 72
1
 10
75.3023893932921027
 20
36.5123632519176624
 11
35.3023893932921027
 21
36.5123632519176624
 72
1
 10
35.3023893932921027
 20
36.5123632519176624
 11
35.3023893932921027
 21
48.5123632519176624
 97
0
 92
1
 93
4
 72
1
 10
75.3023893932920885
 20
-36.5123632519180603
 11
75.3023893932920885
 21
-48.5123632519180603
 72
1
 10
75.3023893932920885
 20
-48.5123632519180603
 11
35.3023893932920743
 21
-48.5123632519180319
 72
1
 10
35.3023893932920743
 20
-48.5123632519180319
 11
35.3023893932920956
 21
-36.5123632519180461
 72
1
 10
35.3023893932920956
 20
-36.5123632519180461
 11
75.3023893932920885
 21
-36.5123632519180603
 97
0
 75
0
 76
1
 98
0
1001
ACAD
1010
0.0
1020
0.0
1030
0
  0
LINE
  5
EC
100
AcDbEntity
  8
0
 62
256
370
-1
 48
1.0
  6
BYLAYER
100
AcDbLine
 10
-71.8419110482232099
 20
-64.4890256059708094
 30
0.0
 11
-55.3339502330298458
 21
-64.4890256059708094
 31
0.0
  0
LINE
  5
ED
100
AcDbEntity
  8
0
 62
256
370
-1
 48
1.0
  6
BYLAYER
100
AcDbLine
 10
-71.8419198956209755
 20
64.4890256059708094
 30
0.0
 11
-55.3339502330298387
 21
64.4890256059708094
 31
0.0
  0
ELLIPSE
  5
EE
100
AcDbEntity
  8
0
 62
256
370
-1
 48
1.0
  6
BYLAYER
100
AcDbEllipse
 10
-55.3339502330296895
 20
0.000005775001938
 30
0.0
 11
-0.0000000000001634
 21
74.4890198309688714
 31
0.0
 40
0.4428132131262484
 41
0.5241452726138032
 42
2.6174476907957782
  0
ENDSEC
  0
SECTION
  2
OBJECTS
  0
DICTIONARY
  5
C
100
AcDbDictionary
280
0
281
1
  3
ACAD_GROUP
350
D
  3
ACAD_LAYOUT
350
1A
  3
ACAD_MLINESTYLE
350
17
  3
ACAD_PLOTSETTINGS
350
19
  3
ACAD_PLOTSTYLENAME
350
E
  3
AcDbVariableDictionary
350
EF
  3
QCAD_OBJECTS
350
F0
  0
DICTIONARY
  5
D
100
AcDbDictionary
280
0
281
1
  0
ACDBDICTIONARYWDFLT
  5
E
100
AcDbDictionary
281
1
  3
Normal
350
F
100
AcDbDictionaryWithDefault
340
F
  0
ACDBPLACEHOLDER
  5
F
  0
DICTIONARY
  5
17
100
AcDbDictionary
280
0
281
1
  3
Standard
350
18
  0
MLINESTYLE
  5
18
100
AcDbMlineStyle
  2
STANDARD
 70
0
  3

 62
256
 51
90.0
 52
90.0
 71
2
 49
0.5
 62
256
  6
BYLAYER
 49
-0.5
 62
256
  6
BYLAYER
  0
DICTIONARY
  5
19
100
AcDbDictionary
280
0
281
1
  0
DICTIONARY
  5
1A
100
AcDbDictionary
281
1
  3
Layout1
350
1E
  3
Layout2
350
26
  3
Model
350
22
  0
LAYOUT
  5
1E
100
AcDbPlotSettings
  1

  2
none_device
  4

  6

 40
0.0
 41
0.0
 42
0.0
 43
0.0
 44
0.0
 45
0.0
 46
0.0
 47
0.0
 48
0.0
 49
0.0
140
0.0
141
0.0
142
1.0
143
1.0
 70
688
 72
0
 73
0
 74
5
  7

 75
16
147
1.0
148
0.0
149
0.0
100
AcDbLayout
  1
Layout1
 70
1
 71
1
 10
0.0
 20
0.0
 11
420.0
 21
297.0
 12
0.0
 22
0.0
 32
0.0
 14
100000000000000000000.0
 24
100000000000000000000.0
 34
100000000000000000000.0
 15
-100000000000000000000.0
 25
-100000000000000000000.0
 35
-100000000000000000000.0
146
0.0
 13
0.0
 23
0.0
 33
0.0
 16
1.0
 26
0.0
 36
0.0
 17
0.0
 27
1.0
 37
0.0
 76
0
330
1B
  0
LAYOUT
  5
22
100
AcDbPlotSettings
  1

  2
none_device
  4

  6

 40
0.0
 41
0.0
 42
0.0
 43
0.0
 44
0.0
 45
0.0
 46
0.0
 47
0.0
 48
0.0
 49
0.0
140
0.0
141
0.0
142
1.0
143
1.0
 70
1712
 72
0
 73
0
 74
0
  7

 75
0
147
1.0
148
0.0
149
0.0
100
AcDbLayout
  1
Model
 70
1
 71
0
 10
0.0
 20
0.0
 11
12.0
 21
9.0
 12
0.0
 22
0.0
 32
0.0
 14
0.0
 24
0.0
 34
0.0
 15
0.0
 25
0.0
 35
0.0
146
0.0
 13
0.0
 23
0.0
 33
0.0
 16
1.0
 26
0.0
 36
0.0
 17
0.0
 27
1.0
 37
0.0
 76
0
330
1F
  0
LAYOUT
  5
26
100
AcDbPlotSettings
  1

  2
none_device
  4

  6

 40
0.0
 41
0.0
 42
0.0
 43
0.0
 44
0.0
 45
0.0
 46
0.0
 47
0.0
 48
0.0
 49
0.0
140
0.0
141
0.0
142
1.0
143
1.0
 70
688
 72
0
 73
0
 74
5
  7

 75
16
147
1.0
148
0.0
149
0.0
100
AcDbLayout
  1
Layout2
 70
1
 71
2
 10
0.0
 20
0.0
 11
12.0
 21
9.0
 12
0.0
 22
0.0
 32
0.0
 14
0.0
 24
0.0
 34
0.0
 15
0.0
 25
0.0
 35
0.0
146
0.0
 13
0.0
 23
0.0
 33
0.0
 16
1.0
 26
0.0
 36
0.0
 17
0.0
 27
1.0
 37
0.0
 76
0
330
23
  0
DICTIONARY
  5
EF
100
AcDbDictionary
281
1
  3
DIMASSOC
350
F2
  3
HIDETEXT
350
F1
  0
DICTIONARYVAR
  5
F1
100
DictionaryVariables
280
0
  1
2
  0
DICTIONARYVAR
  5
F2
100
DictionaryVariables
280
0
  1
1
  0
DICTIONARY
  5
F0
100
AcDbDictionary
281
1
  3
ColorSettings/BackgroundColor
350
F3
  3
ColorSettings/ColorMode
350
F4
  3
Grid/DisplayGrid00
350
F5
  3
Grid/DisplayGrid01
350
F6
  3
Grid/DisplayGrid02
350
F7
  3
Grid/DisplayGrid03
350
F8
  3
Grid/GridSpacingX00
350
F9
  3
Grid/GridSpacingX01
350
FA
  3
Grid/GridSpacingX02
350
FB
  3
Grid/GridSpacingX03
350
FC
  3
Grid/GridSpacingY00
350
FD
  3
Grid/GridSpacingY01
350
FE
  3
Grid/GridSpacingY02
350
FF
  3
Grid/GridSpacingY03
350
100
  3
Grid/IsometricGrid00
350
101
  3
Grid/IsometricGrid01
350
102
  3
Grid/IsometricGrid02
350
103
  3
Grid/IsometricGrid03
350
104
  3
Grid/IsometricProjection00
350
105
  3
Grid/IsometricProjection01
350
106
  3
Grid/IsometricProjection02
350
107
  3
Grid/IsometricProjection03
350
108
  3
Grid/MetaGridSpacingX00
350
109
  3
Grid/MetaGridSpacingX01
350
10A
  3
Grid/MetaGridSpacingX02
350
10B
  3
Grid/MetaGridSpacingX03
350
10C
  3
Grid/MetaGridSpacingY00
350
10D
  3
Grid/MetaGridSpacingY01
350
10E
  3
Grid/MetaGridSpacingY02
350
10F
  3
Grid/MetaGridSpacingY03
350
110
  3
MultiPageSettings/Columns
350
111
  3
MultiPageSettings/GlueMarginsBottom
350
112
  3
MultiPageSettings/GlueMarginsLeft
350
113
  3
MultiPageSettings/GlueMarginsRight
350
114
  3
MultiPageSettings/GlueMarginsTop
350
115
  3
MultiPageSettings/PrintCropMarks
350
116
  3
MultiPageSettings/Rows
350
117
  3
PageSettings/OffsetX
350
118
  3
PageSettings/OffsetY
350
119
  3
PageSettings/PageOrientation
350
11A
  3
PageSettings/PaperHeight
350
11B
  3
PageSettings/PaperWidth
350
11C
  3
PageSettings/Scale
350
11D
  3
PageSettings/ShowPaperBorders
350
11E
  3
PageTagSettings/EnablePageTags
350
11F
  3
PageTagSettings/TagAlignment
350
120
  3
PageTagSettings/TagFont
350
121
  3
PageTagSettings/TagPosition
350
122
  3
QCADVersion
350
123
  3
UnitSettings/PaperUnit
350
124
  3
ViewportCenter
350
125
  3
ViewportHeight
350
126
  3
ViewportWidth
350
127
  0
XRECORD
  5
F3
330
F0
100
AcDbXrecord
280
1
1000
Blanca
  0
XRECORD
  5
F4
330
F0
100
AcDbXrecord
280
1
1000
FullColor
  0
XRECORD
  5
F5
330
F0
100
AcDbXrecord
280
1
290
1
  0
XRECORD
  5
F6
330
F0
100
AcDbXrecord
280
1
290
1
  0
XRECORD
  5
F7
330
F0
100
AcDbXrecord
280
1
290
1
  0
XRECORD
  5
F8
330
F0
100
AcDbXrecord
280
1
290
1
  0
XRECORD
  5
F9
330
F0
100
AcDbXrecord
280
1
1000
auto
  0
XRECORD
  5
FA
330
F0
100
AcDbXrecord
280
1
1000
auto
  0
XRECORD
  5
FB
330
F0
100
AcDbXrecord
280
1
1000
auto
  0
XRECORD
  5
FC
330
F0
100
AcDbXrecord
280
1
1000
auto
  0
XRECORD
  5
FD
330
F0
100
AcDbXrecord
280
1
1000
auto
  0
XRECORD
  5
FE
330
F0
100
AcDbXrecord
280
1
1000
auto
  0
XRECORD
  5
FF
330
F0
100
AcDbXrecord
280
1
1000
auto
  0
XRECORD
  5
100
330
F0
100
AcDbXrecord
280
1
1000
auto
  0
XRECORD
  5
101
330
F0
100
AcDbXrecord
280
1
290
0
  0
XRECORD
  5
102
330
F0
100
AcDbXrecord
280
1
290
0
  0
XRECORD
  5
103
330
F0
100
AcDbXrecord
280
1
290
0
  0
XRECORD
  5
104
330
F0
100
AcDbXrecord
280
1
290
0
  0
XRECORD
  5
105
330
F0
100
AcDbXrecord
280
1
 90
65537
  0
XRECORD
  5
106
330
F0
100
AcDbXrecord
280
1
 90
65537
  0
XRECORD
  5
107
330
F0
100
AcDbXrecord
280
1
 90
65537
  0
XRECORD
  5
108
330
F0
100
AcDbXrecord
280
1
 90
65537
  0
XRECORD
  5
109
330
F0
100
AcDbXrecord
280
1
1000
auto
  0
XRECORD
  5
10A
330
F0
100
AcDbXrecord
280
1
1000
auto
  0
XRECORD
  5
10B
330
F0
100
AcDbXrecord
280
1
1000
auto
  0
XRECORD
  5
10C
330
F0
100
AcDbXrecord
280
1
1000
auto
  0
XRECORD
  5
10D
330
F0
100
AcDbXrecord
280
1
1000
auto
  0
XRECORD
  5
10E
330
F0
100
AcDbXrecord
280
1
1000
auto
  0
XRECORD
  5
10F
330
F0
100
AcDbXrecord
280
1
1000
auto
  0
XRECORD
  5
110
330
F0
100
AcDbXrecord
280
1
1000
auto
  0
XRECORD
  5
111
330
F0
100
AcDbXrecord
280
1
 90
1
  0
XRECORD
  5
112
330
F0
100
AcDbXrecord
280
1
 40
10.0
  0
XRECORD
  5
113
330
F0
100
AcDbXrecord
280
1
 40
10.0
  0
XRECORD
  5
114
330
F0
100
AcDbXrecord
280
1
 40
10.0
  0
XRECORD
  5
115
330
F0
100
AcDbXrecord
280
1
 40
10.0
  0
XRECORD
  5
116
330
F0
100
AcDbXrecord
280
1
290
0
  0
XRECORD
  5
117
330
F0
100
AcDbXrecord
280
1
 90
1
  0
XRECORD
  5
118
330
F0
100
AcDbXrecord
280
1
 40
0.0
  0
XRECORD
  5
119
330
F0
100
AcDbXrecord
280
1
 40
0.0
  0
XRECORD
  5
11A
330
F0
100
AcDbXrecord
280
1
1000
Portrait
  0
XRECORD
  5
11B
330
F0
100
AcDbXrecord
280
1
 40
297.0
  0
XRECORD
  5
11C
330
F0
100
AcDbXrecord
280
1
 40
210.0
  0
XRECORD
  5
11D
330
F0
100
AcDbXrecord
280
1
1000
1:1
  0
XRECORD
  5
11E
330
F0
100
AcDbXrecord
280
1
290
1
  0
XRECORD
  5
11F
330
F0
100
AcDbXrecord
280
1
290
0
  0
XRECORD
  5
120
330
F0
100
AcDbXrecord
280
1
1000
Inside
  0
XRECORD
  5
121
330
F0
100
AcDbXrecord
280
1
1000
Arial,10,-1,5,50,0,0,0,0,0
  0
XRECORD
  5
122
330
F0
100
AcDbXrecord
280
1
1000
TopLeft
  0
XRECORD
  5
123
330
F0
100
AcDbXrecord
280
1
1000
3.32.0
  0
XRECORD
  5
124
330
F0
100
AcDbXrecord
280
1
 90
4
  0
XRECORD
  5
126
330
F0
100
AcDbXrecord
280
1
 40
202.3905444561958689
  0
XRECORD
  5
127
330
F0
100
AcDbXrecord
280
1
 40
458.876257476720582
  0
ENDSEC
  0
EOF
