<?xml version="1.0" encoding="utf-8"?>
<!-- Generator: Adobe Illustrator 18.1.0, SVG Export Plug-In . SVG Version: 6.00 Build 0)  -->
<svg version="1.1" id="Capa_1" xmlns="http://www.w3.org/2000/svg" xmlns:xlink="http://www.w3.org/1999/xlink" x="0px" y="0px"
	 viewBox="0 0 686.3 485.2" enable-background="new 0 0 686.3 485.2" xml:space="preserve">
<path d="M307.8,227.1c-2,0-3.6-0.3-5-1c-1.4-0.7-2.4-1.6-3.3-2.7c-0.8-1.2-1.4-2.5-1.8-4c-0.4-1.5-0.6-3-0.6-4.6v-12.5h3.9v12.5
	c0,1.1,0.1,2.2,0.3,3.3c0.2,1.1,0.6,2,1.1,2.8c0.5,0.8,1.2,1.5,2.1,2c0.9,0.5,1.9,0.7,3.2,0.7c1.3,0,2.4-0.2,3.2-0.7
	c0.9-0.5,1.5-1.2,2-2c0.5-0.8,0.9-1.8,1.1-2.8c0.2-1,0.3-2.1,0.3-3.2v-12.5h3.9v12.5c0,1.7-0.2,3.3-0.6,4.8c-0.4,1.5-1,2.8-1.9,3.9
	c-0.8,1.1-1.9,2-3.3,2.7C311.3,226.7,309.7,227.1,307.8,227.1 M343.8,208c-0.2-0.3-0.6-0.5-1-0.8c-0.4-0.3-1-0.6-1.6-0.8
	s-1.2-0.5-1.9-0.6c-0.7-0.2-1.4-0.2-2.2-0.2c-1.6,0-2.8,0.3-3.6,0.9c-0.8,0.6-1.2,1.4-1.2,2.5c0,0.8,0.2,1.4,0.7,1.9
	c0.4,0.5,1.1,0.8,2,1.1c0.9,0.3,2,0.6,3.4,1c1.7,0.4,3.1,0.9,4.3,1.4c1.2,0.5,2.2,1.3,2.8,2.2c0.6,0.9,1,2.1,1,3.6
	c0,1.2-0.2,2.3-0.7,3.2s-1.1,1.6-1.9,2.2c-0.8,0.6-1.8,1-2.9,1.2c-1.1,0.3-2.3,0.4-3.5,0.4c-1.2,0-2.4-0.1-3.7-0.4
	c-1.2-0.3-2.4-0.6-3.5-1.1c-1.1-0.5-2.1-1.1-3-1.8l1.8-3.3c0.3,0.3,0.7,0.6,1.3,1c0.6,0.4,1.2,0.7,2,1c0.8,0.3,1.6,0.6,2.5,0.8
	c0.9,0.2,1.8,0.3,2.7,0.3c1.5,0,2.7-0.3,3.6-0.8c0.8-0.5,1.2-1.3,1.2-2.3c0-0.8-0.3-1.5-0.8-2c-0.5-0.5-1.3-0.9-2.3-1.3
	c-1-0.3-2.2-0.7-3.6-1c-1.6-0.4-3-0.9-4.1-1.4c-1.1-0.5-1.9-1.2-2.4-2c-0.5-0.8-0.8-1.9-0.8-3.1c0-1.6,0.4-3,1.2-4.1
	c0.8-1.1,1.9-2,3.2-2.5c1.4-0.6,2.9-0.8,4.6-0.8c1.1,0,2.2,0.1,3.2,0.4c1,0.2,1.9,0.6,2.8,1c0.9,0.4,1.7,0.9,2.4,1.4L343.8,208z
	 M362.6,202.3h3.7l9.6,24.6h-4.1l-2.4-6.7h-9.9l-2.4,6.7h-4.1L362.6,202.3z M368.3,217.3l-3.9-10.8l-3.9,10.8H368.3z M388.4,209.5
	v17.4h-3.9v-24.6h3.2l14,17.8v-17.8h3.9v24.6h-3.4L388.4,209.5z M416.7,226.9v-24.6h8.7c2.7,0,4.9,0.6,6.7,1.6s3.1,2.6,4,4.4
	c0.9,1.9,1.3,3.9,1.3,6.2c0,2.5-0.5,4.7-1.5,6.5c-1,1.9-2.4,3.3-4.2,4.3c-1.8,1-3.9,1.5-6.4,1.5H416.7z M433.5,214.5
	c0-1.7-0.3-3.3-1-4.6c-0.6-1.3-1.6-2.4-2.7-3.1c-1.2-0.8-2.6-1.1-4.4-1.1h-4.9v17.8h4.9c1.7,0,3.2-0.4,4.4-1.2
	c1.2-0.8,2.1-1.9,2.7-3.2C433.2,217.7,433.5,216.2,433.5,214.5 M447.1,202.3h3.9v24.6h-3.9V202.3z M460.5,223.9l14.9-18.2h-14.5
	v-3.4H480v3l-14.5,18.2H480v3.4h-19.5V223.9z M496.7,202.3h3.7l9.6,24.6h-4.1l-2.4-6.7h-9.9l-2.4,6.7H487L496.7,202.3z M502.4,217.3
	l-3.9-10.8l-3.9,10.8H502.4z M527.7,227.1c-1.6,0-3.1-0.3-4.5-1c-1.4-0.7-2.6-1.6-3.7-2.8s-1.9-2.5-2.5-4c-0.6-1.5-0.9-3.1-0.9-4.8
	c0-1.7,0.3-3.3,0.9-4.8c0.6-1.5,1.4-2.8,2.5-4c1.1-1.2,2.3-2.1,3.7-2.7c1.4-0.6,3-1,4.7-1c2.3,0,4.3,0.5,5.9,1.5
	c1.6,1,2.8,2.3,3.6,3.9l-3,2.2c-0.6-1.3-1.6-2.3-2.8-3c-1.2-0.7-2.5-1-3.9-1c-1.2,0-2.2,0.2-3.2,0.7c-0.9,0.5-1.8,1.2-2.4,2
	c-0.7,0.8-1.2,1.8-1.5,2.9c-0.3,1.1-0.5,2.2-0.5,3.4c0,1.2,0.2,2.4,0.6,3.5c0.4,1.1,0.9,2,1.7,2.9c0.7,0.8,1.6,1.5,2.5,1.9
	c1,0.5,2,0.7,3.2,0.7c1.3,0,2.6-0.3,3.8-1c1.2-0.7,2.4-1.7,3.4-3.1v4C533.1,225.9,530.6,227.1,527.7,227.1 M534.9,217.3h-5.2v-2.9
	h8.4v12.5h-3.3V217.3z M555.3,202.3h3.7l9.6,24.6h-4.1l-2.4-6.7h-9.9l-2.4,6.7h-4.1L555.3,202.3z M561,217.3l-3.9-10.8l-3.9,10.8
	H561z M300.3,268.6v-24.6h10.3c1.1,0,2.1,0.2,3.1,0.7c0.9,0.5,1.7,1.1,2.4,1.8c0.7,0.8,1.2,1.6,1.6,2.6c0.4,0.9,0.6,1.9,0.6,2.9
	c0,1.4-0.3,2.7-0.9,3.9c-0.6,1.2-1.5,2.2-2.6,3c-1.1,0.8-2.4,1.1-3.9,1.1h-6.7v8.6H300.3z M304.2,256.5h6.4c0.7,0,1.4-0.2,1.9-0.6
	c0.6-0.4,1-1,1.3-1.6c0.3-0.7,0.5-1.5,0.5-2.4c0-0.9-0.2-1.7-0.6-2.4c-0.4-0.7-0.9-1.2-1.4-1.6c-0.6-0.4-1.2-0.6-1.9-0.6h-6.2V256.5
	z M342.2,265.1v3.4h-16.9v-24.6h16.6v3.4h-12.7v7h11v3.2h-11v7.5H342.2z M353.4,251.1v17.4h-3.9v-24.6h3.2l14,17.8v-17.8h3.9v24.6
	h-3.4L353.4,251.1z M362.3,240.8c-0.7,0-1.3-0.1-1.8-0.4c-0.5-0.3-0.9-0.5-1.4-0.7c-0.4-0.2-0.9-0.4-1.4-0.4c-0.5,0-0.9,0.1-1.1,0.4
	c-0.2,0.3-0.4,0.5-0.5,0.8c-0.1,0.3-0.1,0.4-0.1,0.5h-2.2c0-0.2,0.1-0.5,0.2-0.9c0.1-0.4,0.3-0.9,0.6-1.4c0.3-0.5,0.7-0.9,1.1-1.2
	c0.5-0.3,1.1-0.5,1.8-0.5c0.7,0,1.3,0.1,1.7,0.4c0.5,0.3,0.9,0.5,1.3,0.8c0.4,0.3,0.9,0.4,1.5,0.4c0.6,0,1-0.1,1.2-0.4
	c0.3-0.3,0.4-0.5,0.5-0.8c0.1-0.3,0.1-0.4,0.1-0.5h2.2c0,0.2-0.1,0.5-0.2,0.9c-0.1,0.4-0.3,0.9-0.6,1.4c-0.3,0.5-0.7,0.9-1.2,1.2
	C363.7,240.6,363,240.8,362.3,240.8 M386.5,243.9h3.7l9.6,24.6h-4.1l-2.4-6.7h-9.9l-2.4,6.7h-4.1L386.5,243.9z M392.3,259l-3.9-10.8
	l-3.9,10.8H392.3z M406.1,268.6v-24.6h16.4v3.4H410v7.4h10.5v3.2H410v10.6H406.1z M429.5,268.6v-24.6h3.9v21.2h13.2v3.4H429.5z
	 M462.7,268.7c-1.8,0-3.4-0.3-4.8-1c-1.4-0.7-2.7-1.6-3.7-2.8c-1-1.2-1.8-2.5-2.4-4c-0.6-1.5-0.9-3-0.9-4.6c0-1.6,0.3-3.2,0.9-4.7
	c0.6-1.5,1.4-2.8,2.5-4c1.1-1.2,2.3-2.1,3.8-2.8c1.4-0.7,3-1,4.7-1c1.8,0,3.4,0.4,4.8,1.1c1.4,0.7,2.7,1.7,3.7,2.9
	c1,1.2,1.8,2.5,2.4,4c0.6,1.5,0.9,3,0.9,4.5c0,1.6-0.3,3.2-0.9,4.7c-0.6,1.5-1.4,2.8-2.5,4c-1.1,1.2-2.3,2.1-3.8,2.8
	C465.9,268.4,464.4,268.7,462.7,268.7 M454.8,256.2c0,1.2,0.2,2.3,0.6,3.4c0.4,1.1,0.9,2.1,1.6,2.9c0.7,0.8,1.5,1.5,2.5,2
	c1,0.5,2.1,0.7,3.3,0.7c1.2,0,2.4-0.3,3.3-0.8c1-0.5,1.8-1.2,2.4-2.1s1.2-1.8,1.5-2.9c0.3-1.1,0.5-2.2,0.5-3.2
	c0-1.2-0.2-2.3-0.5-3.3c-0.4-1.1-0.9-2-1.6-2.9c-0.7-0.8-1.5-1.5-2.5-2c-1-0.5-2-0.7-3.2-0.7c-1.2,0-2.4,0.3-3.3,0.8
	c-1,0.5-1.8,1.2-2.5,2c-0.7,0.9-1.2,1.8-1.5,2.9C455,254,454.8,255.1,454.8,256.2 M481.9,268.6v-24.6h10.7c1.1,0,2.1,0.2,3.1,0.7
	c0.9,0.5,1.7,1.1,2.4,1.8c0.7,0.8,1.2,1.6,1.6,2.6c0.4,0.9,0.6,1.9,0.6,2.9c0,1.1-0.2,2.1-0.6,3.1c-0.4,1-1,1.9-1.7,2.6
	c-0.7,0.7-1.6,1.2-2.6,1.6l5.8,9.4h-4.4l-5.3-8.6h-5.7v8.6H481.9z M485.7,256.5h6.8c0.7,0,1.4-0.2,1.9-0.6c0.6-0.4,1-1,1.3-1.7
	s0.5-1.5,0.5-2.3c0-0.9-0.2-1.6-0.6-2.3c-0.4-0.7-0.9-1.2-1.4-1.6c-0.6-0.4-1.2-0.6-1.9-0.6h-6.6V256.5z M508.1,243.9h3.9v24.6h-3.9
	V243.9z M520.8,268.6v-24.6h8.7c2.7,0,4.9,0.5,6.7,1.6c1.8,1.1,3.1,2.6,4,4.4c0.9,1.9,1.3,3.9,1.3,6.2c0,2.5-0.5,4.7-1.5,6.5
	c-1,1.9-2.4,3.3-4.2,4.3c-1.8,1-3.9,1.5-6.4,1.5H520.8z M537.6,256.2c0-1.7-0.3-3.3-1-4.6c-0.6-1.3-1.6-2.4-2.7-3.1
	c-1.2-0.8-2.6-1.1-4.4-1.1h-4.9v17.8h4.9c1.7,0,3.2-0.4,4.4-1.2c1.2-0.8,2.1-1.9,2.7-3.2C537.3,259.4,537.6,257.9,537.6,256.2
	 M555.2,243.9h3.7l9.6,24.6h-4.1l-2.4-6.7h-9.9l-2.4,6.7h-4.1L555.2,243.9z M560.9,259l-3.9-10.8l-3.9,10.8H560.9z M305.8,285.6h4.9
	l9.1,24.6h-4.9l-2-6.1h-9.1l-2.1,6.1h-4.9L305.8,285.6z M311.6,300.7l-3.4-10.2l-3.4,10.2H311.6z M346.7,310.2V294l-6.3,12h-2.7
	l-6.3-12v16.2h-4.8v-24.6h5.1l7.3,14l7.4-14h5.1v24.6H346.7z M367.6,285.6h4.9l9.1,24.6h-4.9l-2-6.1h-9.1l-2.1,6.1h-4.9L367.6,285.6
	z M373.4,300.7l-3.4-10.2l-3.4,10.2H373.4z M388.4,310.2v-24.6h10.9c1.1,0,2.2,0.2,3.1,0.7c1,0.5,1.8,1.1,2.5,1.9
	c0.7,0.8,1.2,1.7,1.6,2.6c0.4,1,0.6,2,0.6,3c0,1-0.2,2-0.5,3c-0.4,1-0.9,1.8-1.5,2.5c-0.7,0.7-1.5,1.3-2.4,1.7l5.6,9.3h-5.3
	l-5.1-8.3h-4.8v8.3H388.4z M393.2,297.7h6c0.6,0,1.1-0.2,1.6-0.5c0.5-0.4,0.8-0.8,1.1-1.4c0.3-0.6,0.4-1.3,0.4-2
	c0-0.8-0.2-1.5-0.5-2.1c-0.3-0.6-0.7-1.1-1.2-1.4c-0.5-0.3-1-0.5-1.6-0.5h-5.8V297.7z M422.5,285.6h4.9l9.1,24.6h-4.9l-2-6.1h-9.1
	l-2.1,6.1h-4.9L422.5,285.6z M428.3,300.7l-3.4-10.2l-3.4,10.2H428.3z M475.7,303.9c0,1.4-0.4,2.6-1.1,3.5c-0.7,0.9-1.7,1.6-2.9,2.1
	s-2.5,0.7-4,0.7h-11.9v-24.6h13.2c1.2,0,2.2,0.3,3,0.9c0.8,0.6,1.5,1.4,1.9,2.4c0.5,1,0.7,2,0.7,3c0,1.2-0.3,2.3-0.9,3.4
	c-0.6,1.1-1.5,1.9-2.6,2.4c1.4,0.4,2.5,1.2,3.4,2.3C475.3,300.9,475.7,302.3,475.7,303.9 M460.7,289.7v6.2h6.4c0.5,0,1-0.1,1.5-0.4
	c0.4-0.3,0.8-0.6,1.1-1.1c0.3-0.5,0.4-1,0.4-1.7c0-0.6-0.1-1.2-0.4-1.6c-0.2-0.5-0.6-0.8-1-1.1c-0.4-0.3-0.9-0.4-1.4-0.4H460.7z
	 M470.9,303c0-0.6-0.1-1.2-0.4-1.7c-0.3-0.5-0.6-0.9-1-1.2c-0.4-0.3-0.9-0.4-1.5-0.4h-7.4v6.5h7.1c0.6,0,1.1-0.1,1.6-0.4
	c0.5-0.3,0.9-0.7,1.1-1.2C470.8,304.1,470.9,303.5,470.9,303 M504.5,285.6v24.6h-4.8v-10.5h-11.2v10.5h-4.8v-24.6h4.8v10h11.2v-10
	H504.5z M513.8,285.6h4.8v24.6h-4.8V285.6z M540,310.3h28.6v-8.8H540V310.3z M211.7,167.3h-44.2l-54.6,143h44.2L211.7,167.3z
	 M255.9,167.3h-44.2v143h44.2V167.3z"/>
</svg>
